<?xml version="1.0" standalone="no"?>
<!DOCTYPE svg PUBLIC "-//W3C//DTD SVG 20010904//EN"
 "http://www.w3.org/TR/2001/REC-SVG-20010904/DTD/svg10.dtd">
<svg version="1.0" xmlns="http://www.w3.org/2000/svg"
 width="1379.000000pt" height="1379.000000pt" viewBox="0 0 1379.000000 1379.000000"
 preserveAspectRatio="xMidYMid meet">
<metadata>
Created by potrace 1.14, written by Peter Selinger 2001-2017
</metadata>
<g transform="translate(0.000000,1379.000000) scale(0.100000,-0.100000)"
fill="#000000" stroke="none">
<path d="M6370 13226 c-6 -8 -10 -35 -9 -60 2 -24 -2 -50 -8 -58 -19 -24 -22
-58 -6 -58 14 0 14 -2 0 -18 -21 -23 -22 -52 -2 -52 8 0 15 -7 15 -15 0 -8 -7
-15 -15 -15 -8 0 -15 -7 -15 -15 0 -13 -4 -14 -22 -4 -29 15 -48 35 -48 48 0
5 -9 13 -20 16 -11 3 -20 10 -20 15 0 5 -7 6 -17 3 -10 -4 -14 -2 -10 4 7 10
-33 33 -58 33 -8 0 -15 8 -15 18 -1 27 -65 63 -100 55 -28 -5 -30 -9 -30 -48
0 -38 4 -45 40 -70 22 -15 40 -31 40 -36 0 -13 61 -69 75 -69 8 0 26 -11 40
-24 14 -13 49 -36 79 -52 l52 -27 -8 -51 c-4 -28 -10 -69 -12 -91 -3 -22 -8
-48 -11 -57 -4 -11 -3 -18 4 -18 7 0 7 -8 1 -26 -6 -14 -10 -38 -9 -52 2 -50
-12 -125 -27 -139 -16 -17 -18 -29 -5 -38 6 -3 6 -17 -1 -35 -7 -22 -7 -34 1
-44 6 -7 9 -21 5 -29 -3 -9 3 -26 15 -38 12 -13 21 -27 21 -31 0 -13 52 -1 62
14 4 7 8 23 9 36 1 12 2 28 3 35 1 6 4 14 7 17 6 5 16 72 24 160 2 19 7 58 12
86 5 28 6 60 2 72 -4 11 -4 36 2 54 10 37 20 144 22 257 1 49 6 76 15 78 17 6
15 23 -3 23 -8 0 -15 5 -15 10 0 6 6 10 14 10 8 0 16 13 18 30 3 20 0 30 -9
30 -7 0 -13 11 -13 25 0 14 5 25 11 25 6 0 9 20 7 53 -3 46 -6 53 -32 65 -36
15 -41 15 -56 -2z"/>
<path d="M8230 12977 c-14 -7 -26 -21 -28 -32 -2 -11 -14 -31 -27 -45 -13 -14
-27 -37 -30 -53 -4 -15 -21 -38 -37 -52 -16 -14 -26 -25 -22 -25 5 0 3 -5 -4
-12 -7 -7 -12 -21 -12 -31 0 -11 -14 -36 -31 -58 -16 -21 -31 -49 -32 -61 -1
-13 -12 -38 -25 -55 -13 -18 -20 -33 -15 -33 4 0 3 -4 -3 -8 -6 -4 -21 -27
-33 -51 -13 -24 -26 -40 -31 -35 -5 5 -10 43 -11 84 -2 46 -8 80 -17 89 -7 7
-11 19 -9 26 8 18 -22 258 -33 269 -6 6 -10 20 -10 31 0 28 -44 53 -68 39 -26
-17 -38 -59 -24 -86 6 -13 13 -52 15 -88 10 -145 17 -204 24 -209 4 -3 9 -37
11 -76 2 -40 8 -73 15 -77 9 -5 9 -10 -1 -20 -17 -17 -15 -57 3 -64 9 -4 13
-13 10 -24 -3 -9 4 -28 15 -43 11 -14 20 -32 20 -41 0 -22 23 -30 63 -22 28 5
51 32 63 76 1 3 4 19 9 36 4 17 19 44 34 60 15 16 31 42 35 58 4 16 16 41 27
54 10 14 19 33 19 43 0 10 6 22 13 26 6 4 23 32 37 60 14 29 28 53 33 53 4 0
7 9 7 20 0 13 7 20 20 20 13 0 20 7 20 20 0 11 5 20 10 20 6 0 10 7 10 15 0 9
10 27 23 40 39 43 47 54 47 70 0 8 5 23 11 33 7 12 7 25 0 45 -12 31 -47 36
-91 14z"/>
<path d="M4174 12859 c-10 -12 -14 -23 -9 -27 8 -5 16 -102 9 -102 -1 0 -21 9
-45 20 -52 23 -82 25 -98 6 -9 -11 -8 -15 4 -20 9 -3 22 -20 30 -39 9 -23 24
-36 51 -46 21 -8 45 -20 53 -28 10 -11 27 -14 54 -10 21 3 41 7 43 10 2 2 6
47 8 100 6 116 -8 157 -53 157 -15 0 -36 -9 -47 -21z"/>
<path d="M5351 12810 c-13 -11 -18 -20 -11 -20 8 0 10 -12 5 -39 -4 -24 -2
-42 4 -46 6 -3 11 -23 11 -44 0 -20 5 -42 12 -49 8 -8 8 -15 -1 -26 -10 -12
-9 -21 3 -44 12 -22 12 -32 3 -41 -8 -8 -9 -14 -1 -19 10 -6 23 -98 27 -194 1
-21 7 -38 13 -38 6 0 11 -12 12 -27 3 -59 15 -133 21 -133 3 0 12 -15 19 -32
7 -18 17 -40 21 -48 11 -21 82 -32 101 -15 8 7 39 18 68 25 28 6 52 17 52 23
0 7 5 5 10 -3 9 -13 10 -13 10 0 0 13 1 13 10 0 8 -13 10 -12 10 3 0 10 3 16
8 13 4 -2 23 3 42 12 19 8 48 17 63 19 36 4 66 39 67 77 l0 29 -79 -6 c-88 -7
-151 -28 -151 -51 0 -11 -10 -13 -49 -10 -35 3 -51 0 -61 -11 -22 -27 -38 -17
-44 28 -3 23 -8 53 -11 67 -16 86 -24 133 -23 139 0 3 -1 8 -2 11 -1 3 -4 30
-7 60 -8 86 -31 163 -53 179 -27 18 -25 41 3 42 20 1 21 1 2 7 -19 7 -23 24
-25 110 0 27 -28 72 -44 72 -6 -1 -22 -10 -35 -20z"/>
<path d="M4969 12774 c-6 -8 -19 -14 -28 -14 -9 -1 -34 -9 -56 -20 -22 -11
-45 -19 -52 -20 -6 0 -27 -13 -45 -30 -28 -26 -32 -35 -29 -72 1 -24 7 -47 12
-52 5 -6 9 -22 9 -37 0 -15 4 -30 9 -33 4 -3 11 -27 15 -53 4 -27 9 -61 11
-78 3 -16 6 -45 9 -64 2 -18 8 -36 13 -40 5 -3 8 -13 8 -21 0 -8 3 -18 8 -21
4 -3 11 -31 14 -63 3 -31 10 -59 14 -62 4 -2 6 -10 3 -17 -2 -7 4 -22 15 -34
11 -11 23 -37 27 -57 l6 -37 47 7 c61 8 141 34 141 45 0 5 9 9 20 9 11 0 20 5
20 10 0 6 9 10 20 10 11 0 20 4 20 9 0 5 13 12 29 16 36 8 101 62 101 84 0 9
-11 24 -24 33 -21 15 -26 15 -42 3 -11 -8 -31 -15 -46 -15 -16 0 -28 -4 -28
-10 0 -5 -11 -10 -23 -10 -13 0 -32 -9 -42 -20 -10 -11 -28 -20 -40 -20 -11 0
-30 -7 -41 -15 -10 -8 -22 -15 -25 -15 -11 0 -39 97 -34 113 3 7 -1 20 -10 27
-8 7 -15 21 -15 31 0 11 -4 19 -9 19 -13 0 -21 27 -15 45 4 8 12 15 20 15 8 0
14 4 14 9 0 5 16 12 35 15 19 4 35 11 35 16 0 6 5 10 11 10 17 0 49 40 49 62
0 35 -41 43 -109 19 -34 -11 -65 -21 -70 -21 -5 0 -14 23 -21 50 -7 28 -16 50
-21 50 -5 0 -9 11 -9 24 0 14 -5 28 -10 31 -17 10 -2 24 20 18 14 -4 20 0 20
10 0 8 12 20 28 26 90 37 162 107 130 127 -27 17 -78 21 -89 8z"/>
<path d="M9177 12733 c-23 -6 -41 -20 -120 -98 -34 -32 -67 -68 -72 -79 -6
-11 -25 -25 -43 -30 -19 -5 -40 -21 -49 -37 -9 -15 -39 -42 -68 -60 -29 -19
-56 -43 -61 -54 -5 -11 -19 -24 -31 -30 -13 -5 -23 -16 -23 -23 0 -7 -19 -32
-43 -55 -60 -58 -100 -114 -92 -127 18 -29 95 -33 95 -5 0 8 9 17 20 20 11 3
20 10 20 14 0 10 35 51 44 51 3 0 22 16 40 35 49 50 81 60 120 37 36 -21 93
-35 146 -36 35 -1 35 -2 32 -41 -7 -106 -12 -138 -24 -152 -10 -12 -9 -17 5
-28 17 -13 24 -45 9 -45 -5 0 -9 -14 -10 -30 0 -17 -3 -38 -6 -48 -9 -26 40
-52 76 -40 21 7 29 18 36 51 4 23 5 54 1 70 -6 20 -4 27 7 27 10 0 14 13 15
43 0 50 7 109 20 192 5 33 11 76 13 95 2 19 8 59 15 89 6 29 8 57 6 62 -3 5 1
21 9 36 14 29 11 78 -6 100 -5 7 -7 25 -3 41 8 40 -31 67 -78 55z m-43 -274
c-9 -10 -14 -25 -11 -33 4 -9 2 -18 -3 -21 -6 -4 -10 -22 -10 -42 0 -30 -3
-34 -17 -28 -10 4 -36 11 -58 15 -64 12 -95 27 -89 45 3 8 12 15 19 15 8 0 29
14 47 30 18 17 38 30 44 30 7 0 15 10 18 23 3 12 20 29 38 38 l33 16 3 -34 c2
-22 -3 -42 -14 -54z"/>
<path d="M10192 12578 c-23 -78 6 -192 51 -204 22 -5 185 40 197 55 3 3 14 11
25 17 33 18 31 50 -4 67 -17 9 -33 12 -36 8 -2 -5 -26 -11 -52 -15 -88 -13
-88 -13 -87 12 0 12 -3 22 -7 22 -12 0 -17 38 -6 49 14 14 6 21 -34 27 -33 6
-35 4 -47 -38z"/>
<path d="M4360 12535 c-7 -8 -9 -15 -4 -15 4 0 -7 -13 -25 -29 -18 -16 -33
-35 -35 -43 -1 -7 -4 -17 -8 -23 -3 -5 -9 -25 -13 -42 -3 -18 -15 -49 -25 -70
-10 -21 -16 -41 -13 -45 2 -5 -2 -8 -9 -8 -9 0 -9 -3 2 -10 12 -8 12 -10 1
-10 -11 0 -10 -4 3 -19 16 -18 17 -56 1 -81 -3 -6 0 -13 9 -16 8 -3 12 -12 9
-21 -3 -8 -1 -32 6 -54 6 -21 17 -58 23 -81 7 -24 23 -53 35 -66 13 -13 23
-27 23 -33 0 -6 4 -8 9 -4 6 3 15 -5 22 -17 7 -13 18 -27 25 -31 8 -4 14 -14
14 -22 0 -7 20 -21 45 -31 25 -9 45 -20 45 -24 0 -9 68 -31 110 -35 43 -4 120
23 120 42 0 8 -12 26 -26 40 -20 20 -28 23 -34 13 -7 -11 -13 -10 -34 3 -14 9
-39 17 -56 17 -17 0 -39 9 -50 20 -11 11 -24 20 -29 20 -5 0 -13 9 -16 20 -3
11 -13 20 -20 20 -8 0 -24 18 -35 40 -11 22 -25 40 -30 40 -6 0 -10 18 -10 39
0 25 -5 41 -15 45 -9 3 -12 12 -8 22 3 9 0 20 -7 24 -9 6 -13 25 -11 53 1 25
-3 48 -9 52 -6 3 -8 10 -5 15 3 5 6 25 7 45 1 19 5 35 9 35 10 0 23 50 20 78
-1 12 2 22 8 22 14 0 61 45 61 59 0 6 5 11 10 11 6 0 10 9 10 20 0 13 -12 25
-36 35 -45 19 -49 19 -64 0z"/>
<path d="M6939 12309 c-11 -11 -19 -30 -18 -42 3 -33 -11 -80 -28 -94 -9 -7
-13 -18 -10 -25 2 -8 -1 -22 -9 -33 -19 -25 -19 -139 0 -154 30 -25 65 12 84
89 23 93 25 105 23 118 -1 8 5 22 14 32 16 17 15 52 -2 113 -6 23 -28 22 -54
-4z"/>
<path d="M10075 12260 c-3 -5 -17 -10 -29 -10 -23 0 -56 -36 -56 -60 0 -6 -9
-20 -20 -32 -11 -12 -20 -31 -21 -42 0 -12 -1 -49 -3 -83 -1 -35 -7 -68 -14
-75 -7 -7 -12 -26 -12 -44 0 -19 -6 -34 -15 -38 -9 -3 -15 -18 -15 -35 0 -17
-11 -42 -26 -60 -21 -25 -33 -31 -65 -31 -21 0 -39 4 -39 9 0 8 -65 19 -124
21 -32 2 -39 -15 -22 -49 18 -34 62 -61 100 -61 14 0 27 -4 31 -10 3 -5 30 -9
60 -9 29 1 58 -2 64 -5 5 -4 37 16 70 44 55 46 61 55 62 90 2 52 1 49 22 93
10 20 15 41 12 46 -3 5 -1 13 5 16 6 4 11 23 11 43 -1 20 1 51 3 67 1 17 4 40
4 52 1 12 14 35 28 50 29 31 78 38 106 15 9 -7 25 -12 35 -10 30 6 27 43 -7
82 -29 33 -37 36 -85 36 -30 0 -57 -4 -60 -10z"/>
<path d="M3617 12112 c-17 -19 -22 -53 -11 -65 4 -4 8 -21 10 -39 6 -71 17
-108 30 -108 8 0 14 -3 15 -7 4 -39 12 -70 21 -80 6 -7 8 -24 4 -37 -3 -15 0
-28 8 -35 8 -7 12 -23 10 -40 -3 -18 0 -30 9 -34 8 -3 12 -17 11 -36 -1 -17 2
-31 7 -31 5 0 12 -12 15 -27 4 -16 14 -36 22 -45 14 -17 13 -18 -14 -18 -34 0
-54 16 -54 42 0 11 -16 25 -43 38 -30 14 -49 32 -60 55 -9 19 -23 35 -31 35
-14 0 -66 61 -66 78 0 10 -43 52 -54 52 -5 0 -17 11 -28 25 -30 38 -108 75
-136 64 -15 -6 -21 -13 -15 -21 4 -7 8 -17 9 -23 0 -5 2 -15 2 -22 2 -15 46
-63 58 -63 5 0 15 -12 21 -28 7 -15 23 -32 35 -37 13 -6 27 -20 33 -33 5 -12
18 -25 28 -28 10 -3 22 -17 27 -30 5 -13 21 -29 35 -36 14 -6 25 -17 25 -23 0
-7 18 -27 40 -45 22 -18 40 -38 40 -45 0 -16 33 -45 52 -45 9 0 26 -16 38 -35
12 -19 29 -35 38 -35 9 0 28 -12 41 -25 30 -32 76 -33 102 -2 20 24 24 52 9
62 -6 3 -8 16 -5 28 5 23 -10 50 -35 60 -12 4 -11 6 3 6 20 1 25 51 4 51 -7 0
-14 12 -15 26 -1 15 -7 33 -13 40 -6 7 -12 32 -13 54 -1 23 -7 45 -13 48 -6 4
-9 16 -7 27 2 11 -2 36 -8 55 -7 19 -11 41 -10 48 2 6 -2 12 -8 12 -5 0 -10
15 -10 34 0 19 -6 41 -13 48 -16 16 -40 95 -33 107 3 5 -1 14 -9 21 -8 7 -15
22 -15 33 0 22 -26 46 -51 47 -9 0 -23 -8 -32 -18z"/>
<path d="M10873 11773 c-3 -10 -26 -28 -53 -41 -27 -13 -50 -31 -53 -42 -3
-11 -13 -23 -24 -28 -40 -17 -83 -48 -83 -59 0 -7 -12 -20 -27 -30 -16 -10
-38 -28 -50 -40 -12 -13 -29 -23 -38 -23 -8 0 -15 -7 -15 -15 0 -8 -17 -28
-39 -43 -21 -15 -62 -54 -90 -87 -39 -44 -51 -66 -51 -91 0 -28 6 -35 43 -54
23 -12 51 -30 62 -40 11 -10 29 -20 40 -24 11 -3 35 -19 53 -36 18 -16 39 -30
46 -30 7 0 27 -14 45 -30 17 -17 36 -28 41 -25 5 3 20 -3 32 -14 24 -23 40
-26 69 -11 22 12 25 34 7 56 -52 61 -88 92 -114 98 -16 4 -43 19 -59 35 -17
15 -43 31 -58 35 -15 3 -35 15 -45 26 -9 11 -23 20 -32 21 -10 0 -11 2 -2 6 6
2 12 10 12 17 0 15 71 81 85 78 6 0 21 14 35 33 14 18 38 41 53 50 27 16 30
16 51 -4 12 -11 42 -27 66 -36 24 -9 47 -20 50 -24 8 -14 58 -1 65 16 7 21
-21 63 -43 63 -10 0 -32 14 -50 30 -18 17 -41 30 -50 30 -12 0 -11 4 8 17 34
24 60 51 60 63 0 6 11 10 24 10 17 0 28 9 40 34 12 26 21 33 36 29 11 -3 20
-9 20 -13 0 -5 25 -21 56 -37 30 -15 63 -35 73 -44 30 -28 55 -37 79 -28 33
13 30 56 -5 72 -16 6 -39 24 -53 39 -13 16 -34 28 -45 28 -11 0 -31 9 -45 20
-14 11 -31 20 -37 20 -7 0 -13 3 -13 8 0 7 -48 32 -63 32 -5 0 -11 -8 -14 -17z"/>
<path d="M3860 11570 c0 -5 5 -10 10 -10 6 0 10 5 10 10 0 6 -4 10 -10 10 -5
0 -10 -4 -10 -10z"/>
<path d="M1954 10976 c-40 -22 -54 -38 -54 -62 0 -15 -6 -24 -15 -24 -8 0 -15
-9 -15 -20 0 -11 -11 -30 -25 -42 -14 -12 -25 -27 -25 -34 0 -6 -7 -17 -15
-24 -9 -7 -13 -15 -11 -18 3 -2 -6 -20 -19 -40 -13 -19 -22 -39 -19 -44 3 -4
0 -8 -5 -8 -6 0 -11 -11 -11 -25 0 -18 5 -25 18 -25 10 0 33 -18 51 -41 18
-22 44 -44 57 -49 13 -5 24 -14 24 -20 0 -5 7 -10 15 -10 8 0 15 -7 15 -15 0
-8 4 -15 10 -15 5 0 39 -29 75 -65 37 -36 71 -65 76 -65 5 0 9 -4 9 -10 0 -5
8 -10 18 -10 10 0 26 -13 35 -30 12 -19 26 -30 41 -30 16 0 28 -11 42 -37 13
-26 30 -41 50 -47 20 -6 38 -22 49 -42 16 -29 35 -46 57 -48 4 -1 18 -11 30
-23 95 -90 118 -103 177 -103 31 0 42 5 57 28 10 15 17 30 16 35 -1 4 3 7 8 7
6 0 10 5 10 12 0 6 20 30 45 54 25 23 45 46 44 51 -4 21 2 33 16 33 9 0 24 13
33 30 9 16 20 30 25 30 4 0 7 5 7 10 0 15 31 45 54 54 15 5 17 9 8 18 -7 7
-12 18 -12 26 0 8 -8 21 -17 28 -21 16 -63 18 -63 4 0 -5 -13 -16 -30 -25 -16
-9 -30 -23 -30 -31 0 -9 -20 -35 -45 -58 -25 -24 -45 -47 -45 -53 0 -5 -16
-24 -35 -42 -19 -17 -35 -38 -35 -45 0 -8 -10 -20 -23 -29 -18 -12 -24 -12
-35 -1 -6 7 -12 18 -12 24 0 6 -5 8 -10 5 -15 -9 -60 22 -60 40 0 8 -4 14 -8
12 -8 -2 -66 48 -138 121 -18 17 -37 32 -42 32 -5 0 -22 16 -38 35 -15 20 -34
33 -41 31 -19 -8 -43 4 -43 20 0 7 8 19 18 26 9 7 23 26 30 41 7 15 17 25 22
22 6 -3 10 2 10 13 0 21 29 52 49 52 7 0 10 4 6 9 -3 6 1 14 10 18 8 5 19 30
24 56 7 38 5 49 -9 62 -9 8 -23 15 -31 15 -17 0 -90 -58 -86 -69 2 -9 -26 -49
-70 -100 -18 -20 -33 -43 -33 -52 0 -23 -28 -32 -35 -11 -3 9 -22 31 -42 47
-20 17 -49 42 -66 58 -16 15 -33 27 -36 28 -56 7 -81 26 -58 44 6 6 21 27 32
49 11 21 27 51 35 67 8 16 23 31 33 35 9 3 17 9 17 13 0 5 11 19 24 32 29 30
44 93 26 114 -15 17 -36 18 -66 1z"/>
<path d="M11780 10775 c-19 -13 -48 -37 -65 -53 -37 -35 -79 -62 -99 -62 -8 0
-23 -11 -33 -23 -10 -13 -36 -30 -57 -37 -51 -16 -153 -78 -160 -95 -3 -8 -21
-17 -40 -21 -20 -3 -34 -10 -31 -14 3 -4 -7 -11 -22 -14 -34 -9 -119 -98 -125
-131 -6 -29 31 -92 50 -88 7 2 12 -4 12 -12 0 -33 25 -64 64 -81 22 -10 50
-26 61 -35 22 -19 165 -36 165 -20 0 5 21 14 48 21 26 7 54 19 63 27 8 7 20
13 26 13 6 0 13 7 17 15 3 8 12 15 21 15 8 0 15 5 15 12 0 6 3 8 7 5 9 -10 33
12 28 26 -3 7 9 27 25 46 17 18 30 39 31 45 3 47 -4 143 -12 151 -5 5 -9 17
-9 27 0 15 3 17 20 8 14 -7 22 -7 32 3 7 8 21 12 31 9 10 -2 45 1 77 8 43 9
60 17 60 29 0 9 9 29 20 46 33 51 8 106 -74 159 -69 46 -102 50 -146 21z m90
-80 c14 -4 28 -13 32 -19 14 -20 8 -55 -9 -64 -20 -10 -139 -10 -149 1 -12 12
6 38 36 51 17 7 27 16 23 20 -5 4 1 14 11 22 11 8 22 10 25 5 3 -4 17 -12 31
-16z m-194 -248 c12 -23 13 -35 5 -59 -6 -17 -9 -34 -6 -38 7 -11 -5 -40 -17
-40 -5 0 -25 -16 -45 -35 -20 -19 -42 -36 -50 -36 -7 -1 -18 -2 -23 -3 -6 0
-15 -8 -20 -16 -9 -13 -10 -13 -10 0 0 8 -6 4 -13 -10 -11 -22 -19 -25 -57
-23 -25 1 -57 2 -73 2 -19 1 -31 8 -39 26 -6 13 -18 27 -27 30 -9 3 -26 20
-38 39 l-22 34 34 16 c19 9 37 21 40 25 3 5 19 12 36 16 16 4 42 18 56 31 14
13 31 24 37 24 6 0 28 16 49 35 22 20 49 35 62 35 14 0 30 9 37 20 12 18 13
18 40 -13 16 -18 35 -45 44 -60z"/>
<path d="M12165 10090 c-22 -16 -47 -29 -56 -30 -14 0 -36 -18 -68 -55 -7 -9
-22 -15 -32 -12 -11 3 -22 0 -27 -7 -7 -12 -102 -46 -127 -46 -8 0 -16 -8 -20
-19 -3 -10 -18 -21 -34 -24 -15 -3 -42 -17 -58 -31 -16 -14 -41 -28 -56 -31
-15 -4 -45 -24 -68 -45 -35 -32 -41 -42 -36 -67 10 -51 26 -83 42 -83 8 0 22
-17 30 -37 9 -21 31 -52 49 -69 19 -18 38 -38 42 -45 5 -8 21 -25 36 -38 26
-23 28 -23 53 -7 14 9 25 23 25 31 0 23 -22 65 -34 65 -12 0 -46 54 -46 73 -1
16 -46 67 -60 67 -31 0 14 69 46 70 6 0 21 9 34 20 13 11 34 23 47 26 13 4 23
13 23 21 0 11 7 13 24 9 17 -4 31 1 50 19 15 13 33 22 41 19 8 -4 15 -1 15 4
0 6 12 12 28 14 16 2 31 12 37 26 5 12 15 22 22 22 6 0 13 3 15 8 2 4 29 20
61 35 31 16 57 33 57 38 0 5 7 9 15 9 8 0 15 6 15 13 0 7 10 17 22 22 13 6 24
18 26 29 9 45 -74 49 -133 6z"/>
<path d="M1054 10058 c-16 -26 -9 -62 18 -92 31 -33 35 -45 16 -47 -7 -1 -17
-2 -23 -4 -5 -1 -22 -3 -37 -3 -29 -2 -37 -23 -19 -51 9 -15 112 -33 121 -22
3 3 16 7 29 9 32 3 52 31 47 62 -3 14 -6 34 -8 45 -2 11 -13 26 -25 33 -13 7
-23 18 -23 25 -1 40 -77 76 -96 45z"/>
<path d="M1350 9961 c0 -11 -8 -22 -18 -25 -14 -5 -61 -85 -68 -116 0 -3 -5
-16 -11 -31 -12 -28 -5 -119 8 -119 5 0 9 -6 9 -14 0 -8 7 -16 15 -20 8 -3 15
-12 15 -21 0 -8 5 -15 10 -15 6 0 25 -15 43 -34 28 -29 41 -35 97 -41 36 -4
75 -11 88 -16 14 -6 22 -5 22 2 0 6 6 9 14 6 8 -3 16 -2 18 3 3 8 69 20 181
33 16 2 33 10 38 18 7 11 9 11 9 1 0 -10 13 -13 48 -11 45 3 75 -2 117 -21 11
-5 37 -16 58 -24 25 -10 37 -21 37 -35 0 -11 7 -26 15 -35 17 -17 20 -42 5
-51 -5 -3 -6 -15 0 -29 6 -18 3 -29 -15 -52 -14 -16 -24 -36 -25 -44 0 -8 -6
-27 -14 -41 -12 -24 -12 -28 5 -43 11 -9 19 -12 19 -7 0 5 13 12 30 16 17 4
39 20 52 38 12 18 26 35 31 38 4 3 7 10 6 15 -1 5 3 21 9 36 6 15 9 37 6 50
-2 13 -5 45 -5 73 -1 54 -9 74 -46 119 -25 30 -125 86 -154 86 -8 0 -20 5 -26
11 -14 14 -148 13 -223 -1 -30 -6 -78 -13 -106 -15 -28 -3 -64 -9 -79 -15 -15
-6 -35 -8 -44 -5 -9 3 -32 7 -51 9 -19 2 -41 12 -50 22 -8 11 -27 25 -42 31
-26 12 -27 16 -24 60 6 60 22 124 34 132 4 3 17 21 27 38 19 32 19 33 0 48
-29 21 -65 19 -65 -4z"/>
<path d="M8037 9537 c-47 -48 -123 -133 -139 -154 -19 -27 -191 -143 -212
-143 -16 0 -143 -66 -203 -106 -28 -19 -56 -34 -62 -34 -5 0 -14 -6 -18 -13
-4 -7 -24 -23 -43 -34 -41 -26 -143 -137 -183 -200 -20 -32 -33 -43 -45 -39
-44 14 -277 24 -342 15 -45 -6 -70 2 -87 31 -9 17 -23 30 -31 30 -7 0 -11 4
-8 9 14 22 -93 105 -209 164 -215 108 -252 127 -272 146 -12 12 -26 21 -30 21
-4 0 -55 48 -114 108 -135 136 -178 176 -186 169 -16 -16 59 -127 85 -127 7 0
11 -4 8 -9 -3 -5 10 -26 30 -47 20 -22 43 -49 51 -61 8 -13 19 -23 23 -23 5 0
28 -18 51 -40 24 -22 49 -40 55 -40 7 0 14 -4 16 -9 3 -8 144 -91 156 -91 18
0 235 -119 240 -131 2 -5 25 -31 52 -59 l48 -51 -51 -27 c-29 -15 -56 -29 -62
-31 -18 -7 -89 -65 -122 -99 -80 -84 -124 -167 -143 -271 -10 -54 -9 -74 5
-126 l17 -61 -26 -39 c-14 -21 -26 -42 -26 -46 0 -19 -17 -7 -35 24 -10 17
-21 34 -24 37 -12 10 -31 50 -31 65 0 8 -5 15 -11 15 -5 0 -8 4 -5 8 3 5 -11
34 -30 66 -18 31 -34 61 -34 66 0 11 -62 104 -72 108 -5 2 -8 9 -8 15 0 7 -18
32 -40 56 -22 25 -40 48 -40 52 0 19 -151 158 -215 199 -38 24 -72 47 -75 51
-10 12 -156 17 -203 6 -87 -20 -100 -75 -29 -124 30 -19 42 -21 105 -16 128
11 147 7 189 -34 41 -40 68 -91 104 -195 12 -37 36 -87 53 -112 17 -25 31 -49
31 -53 0 -5 7 -18 15 -28 8 -11 37 -55 65 -97 27 -43 54 -78 60 -78 6 0 9 -4
6 -9 -3 -4 6 -19 19 -31 14 -13 25 -29 25 -36 0 -13 2 -15 58 -75 30 -33 31
-37 21 -68 -11 -32 -13 -33 -54 -28 -23 4 -64 18 -92 32 -28 14 -54 25 -57 25
-3 0 -34 13 -69 29 -35 16 -73 31 -83 33 -10 2 -27 10 -36 18 -9 8 -47 31 -85
50 -37 19 -96 52 -130 73 -35 20 -71 37 -82 37 -29 0 -86 26 -70 32 19 7 -97
58 -131 58 -16 0 -30 3 -32 8 -3 8 -312 162 -325 162 -4 0 -51 16 -103 36
-151 57 -194 64 -377 59 -161 -4 -274 -14 -458 -40 -62 -9 -91 -18 -107 -33
-13 -11 -18 -12 -18 -2 0 8 -8 10 -27 5 -16 -4 -66 -15 -113 -25 -47 -10 -107
-29 -135 -43 -27 -14 -80 -38 -118 -53 -69 -29 -199 -117 -195 -132 2 -5 -25
-34 -59 -66 -68 -63 -86 -100 -86 -180 0 -86 26 -145 101 -222 62 -64 137
-130 202 -179 14 -11 51 -45 82 -75 31 -30 76 -71 100 -91 68 -56 333 -229
352 -229 9 0 16 -4 16 -10 0 -5 3 -9 8 -8 4 1 20 -4 35 -10 16 -7 33 -12 38
-12 19 0 135 -63 159 -87 14 -14 44 -39 68 -56 23 -17 42 -34 42 -39 0 -4 7
-8 15 -8 7 0 18 -6 22 -13 10 -16 106 -77 121 -77 5 0 12 -3 14 -7 6 -15 159
-76 201 -81 71 -8 419 -7 470 2 31 6 51 15 58 28 8 15 13 17 25 7 14 -11 116
-5 139 9 5 3 16 7 25 8 55 8 129 24 150 33 14 5 57 22 95 37 39 15 88 39 110
53 22 14 57 35 78 46 20 11 37 23 37 28 0 4 5 5 10 2 6 -4 28 7 49 24 21 17
46 31 55 31 9 0 19 7 22 15 4 8 11 15 17 15 6 0 20 8 31 18 12 10 33 23 47 29
25 11 27 9 38 -28 7 -22 9 -44 5 -50 -4 -6 -1 -15 5 -19 19 -11 -47 -46 -115
-61 -33 -7 -80 -25 -105 -41 -25 -15 -49 -28 -53 -28 -8 0 -10 -1 -110 -87
-44 -38 -104 -92 -134 -120 -31 -29 -57 -53 -58 -53 -7 0 -170 -114 -244 -171
-82 -62 -92 -66 -221 -102 -155 -42 -232 -73 -272 -110 -41 -39 -39 -65 7 -90
35 -18 43 -19 90 -7 33 8 62 24 83 46 18 18 42 35 53 39 11 4 18 10 15 15 -9
14 55 20 105 8 76 -17 143 3 230 68 39 30 73 54 76 54 5 0 165 120 174 130 13
15 131 100 139 100 5 0 11 3 13 8 2 4 20 20 42 36 38 28 38 29 31 5 -4 -13
-12 -25 -16 -27 -5 -2 -9 -17 -9 -32 0 -16 -4 -31 -9 -34 -15 -10 -32 -229
-18 -243 4 -3 2 -14 -4 -24 -14 -28 3 -351 21 -374 4 -5 10 -29 14 -51 6 -39
4 -43 -32 -69 -53 -40 -78 -71 -102 -124 -12 -25 -30 -63 -40 -83 -11 -20 -20
-43 -20 -51 0 -8 -13 -42 -30 -75 -17 -34 -30 -65 -30 -70 0 -6 -13 -34 -28
-63 -96 -181 -211 -324 -339 -426 -18 -14 -33 -32 -33 -39 0 -8 -4 -14 -9 -14
-14 0 -39 -44 -46 -83 -6 -31 -3 -40 20 -62 20 -17 39 -25 65 -25 32 0 44 8
87 53 33 35 53 67 62 100 8 26 18 50 22 53 5 3 9 12 9 19 0 8 33 45 72 82 130
121 194 188 209 214 52 97 102 179 114 189 8 7 15 16 15 21 0 5 16 32 35 59
19 27 35 52 35 55 0 3 9 14 19 24 24 24 39 11 44 -35 3 -39 54 -169 84 -217
14 -22 22 -45 19 -53 -3 -8 -2 -14 3 -14 4 0 8 -6 9 -12 3 -44 109 -281 145
-325 22 -26 80 -109 102 -144 72 -118 163 -219 280 -311 79 -63 140 -97 203
-114 52 -14 164 -12 183 2 8 6 30 17 49 24 42 17 170 108 170 121 0 5 6 9 13
9 7 0 27 19 44 43 18 23 48 63 67 89 20 26 36 53 36 59 0 6 8 23 19 37 46 65
103 214 138 360 3 12 9 22 13 22 4 0 10 15 14 32 4 18 15 51 25 73 58 123 85
200 77 220 -3 8 2 19 9 25 14 11 32 75 27 93 -6 20 19 -7 39 -43 13 -22 26
-40 31 -40 4 0 8 -9 8 -20 0 -11 5 -20 10 -20 6 0 10 -7 10 -15 0 -8 5 -15 10
-15 6 0 10 -7 10 -15 0 -7 6 -18 13 -22 7 -4 19 -23 26 -40 8 -18 17 -33 22
-33 5 0 9 -6 9 -14 0 -8 11 -28 25 -44 14 -17 25 -34 25 -38 0 -9 10 -19 102
-102 31 -28 53 -52 47 -54 -5 -2 0 -27 11 -56 11 -29 20 -68 20 -87 0 -63 20
-89 67 -88 7 1 11 -3 8 -7 -7 -12 13 -17 48 -12 29 5 68 51 63 75 -2 7 -6 29
-11 50 -4 20 -11 40 -16 43 -5 3 -9 12 -9 21 0 8 -13 32 -29 52 -17 21 -31 44
-33 51 -2 8 -13 26 -25 40 -13 13 -23 28 -23 31 0 4 -8 9 -18 11 -21 6 -106
165 -116 218 -13 66 -59 205 -74 222 -8 10 -12 24 -9 32 4 9 2 18 -3 21 -5 3
-23 34 -40 68 -17 34 -49 79 -72 100 -39 36 -40 39 -38 95 1 31 2 69 2 84 -1
15 3 30 8 33 5 3 3 20 -5 39 -8 18 -12 35 -10 38 7 6 26 142 32 223 10 137 7
299 -6 323 -12 22 -11 23 7 13 11 -6 37 -29 58 -52 59 -64 66 -70 129 -124 32
-27 68 -60 79 -71 24 -25 85 -46 136 -48 33 -1 38 -6 90 -92 59 -98 90 -124
146 -124 40 0 48 14 49 77 0 29 -6 48 -22 65 -13 14 -23 29 -23 36 0 12 -103
92 -118 92 -5 0 -27 16 -48 35 -21 19 -41 35 -45 35 -11 0 -260 253 -277 282
-9 16 -22 28 -29 28 -7 0 -13 5 -13 10 0 16 -88 99 -129 121 -20 10 -43 23
-51 28 -20 11 -114 54 -167 76 -29 12 -40 22 -34 29 5 6 19 36 31 66 12 30 25
59 29 63 5 5 21 -5 37 -20 28 -28 59 -47 152 -93 23 -12 63 -41 90 -65 26 -24
64 -58 84 -75 45 -38 179 -121 228 -139 19 -8 53 -22 75 -32 114 -49 283 -64
406 -35 110 26 278 84 312 108 30 22 40 23 162 20 120 -2 200 6 250 28 11 5
36 11 55 14 69 10 100 18 100 27 0 5 7 9 16 9 9 0 28 8 42 18 15 10 42 24 60
31 17 8 32 16 32 20 0 4 15 12 33 19 17 6 46 24 62 39 17 16 49 37 70 49 69
36 170 95 175 102 3 4 46 27 95 50 147 72 155 76 160 92 3 8 17 16 32 16 45 2
131 62 226 156 48 48 87 90 87 95 0 4 13 22 28 40 93 107 105 132 100 204 -3
46 -9 63 -25 74 -11 8 -23 27 -26 42 -3 15 -33 57 -66 92 -34 36 -61 68 -61
73 0 9 -105 88 -117 88 -5 0 -28 11 -53 24 -25 12 -67 31 -95 41 -27 10 -56
23 -62 28 -9 6 -13 5 -13 -4 0 -11 -2 -11 -9 -1 -7 11 -89 36 -156 47 -11 2
-47 11 -80 20 -72 21 -232 24 -355 7 -47 -6 -145 -16 -219 -22 -128 -10 -163
-17 -331 -61 -41 -11 -113 -24 -160 -28 -79 -8 -115 -16 -310 -71 -41 -12 -97
-27 -125 -35 -27 -7 -75 -20 -105 -29 -66 -18 -177 -54 -205 -66 -11 -5 -47
-19 -80 -30 -33 -12 -71 -27 -86 -35 -14 -8 -52 -24 -85 -36 -32 -12 -83 -36
-112 -53 -29 -17 -68 -40 -87 -51 -19 -11 -52 -33 -74 -48 -41 -30 -61 -29
-61 2 0 10 -9 30 -20 43 l-19 25 31 24 c86 66 128 102 128 110 0 5 7 9 15 9 8
0 15 4 15 10 0 10 137 170 157 183 26 16 99 99 119 135 11 20 35 54 53 74 33
36 43 52 76 115 24 45 94 123 111 123 8 0 14 4 14 9 0 5 35 12 78 16 84 8 109
17 132 49 20 27 31 56 22 56 -4 0 -8 9 -9 21 -2 26 -41 61 -62 55 -9 -3 -36
-10 -61 -17 -51 -14 -202 -121 -251 -177 -18 -20 -43 -44 -55 -53 -31 -20
-124 -137 -124 -155 0 -8 -4 -14 -10 -14 -9 0 -44 -44 -100 -125 -14 -20 -41
-54 -61 -75 -20 -21 -38 -42 -40 -47 -6 -12 -145 -123 -155 -123 -5 0 -26 -13
-45 -29 l-36 -30 -22 29 c-19 27 -20 33 -8 57 14 27 26 80 31 135 2 15 -1 56
-7 90 -5 35 -9 68 -10 75 0 7 -6 14 -13 17 -7 3 -32 42 -55 87 -51 102 -88
139 -195 194 -48 24 -47 31 17 100 20 22 50 55 65 73 38 44 234 174 328 217
41 18 77 38 81 44 3 6 15 11 26 11 10 0 19 5 19 10 0 6 5 10 11 10 6 0 37 19
70 41 87 61 245 279 203 279 -3 0 -20 -15 -37 -33z m417 -687 c-14 -12 -106
-21 -99 -10 3 6 14 10 24 10 10 0 32 7 47 15 28 14 48 4 28 -15z m-2907 -34
c4 -3 -18 -6 -48 -6 -36 0 -49 3 -40 9 15 10 78 7 88 -3z m347 -260 c11 -12
28 -33 36 -45 8 -13 20 -29 25 -35 6 -6 18 -27 28 -47 9 -20 24 -39 32 -43 8
-3 12 -12 9 -21 -3 -8 -2 -15 4 -15 5 0 15 -15 23 -32 7 -18 23 -48 35 -67 12
-18 20 -39 18 -46 -3 -6 2 -18 11 -25 8 -7 15 -18 15 -24 0 -7 20 -32 45 -56
45 -44 54 -60 35 -60 -12 0 -44 33 -80 85 -14 20 -44 61 -67 91 -24 31 -43 63
-43 71 0 7 -11 26 -25 41 -14 15 -31 42 -37 60 -7 17 -16 32 -20 32 -4 0 -8 6
-8 14 0 8 -15 26 -32 40 -18 14 -27 26 -20 26 10 0 10 5 2 20 -6 11 -7 20 -3
20 4 0 2 5 -5 12 -7 7 -12 21 -11 33 0 11 3 14 6 7 3 -7 15 -23 27 -36z
m-1244 -65 c45 -12 170 -58 192 -71 10 -5 22 -10 27 -10 5 0 71 -29 146 -65
75 -36 138 -65 140 -65 3 0 28 -11 57 -24 29 -13 62 -26 73 -29 11 -3 36 -11
55 -18 59 -20 65 -22 72 -21 3 1 12 -5 18 -13 14 -17 35 -21 25 -5 -3 6 -1 10
4 10 6 0 11 -11 11 -23 0 -19 10 -28 43 -43 23 -10 56 -29 73 -41 17 -13 35
-23 39 -23 5 0 16 -6 24 -13 9 -8 41 -24 71 -36 30 -13 83 -36 117 -52 34 -16
66 -29 71 -29 4 0 17 -7 28 -15 16 -13 16 -14 2 -9 -11 4 -18 1 -18 -6 0 -7
-6 -6 -15 4 -9 8 -32 18 -53 22 -42 7 -226 67 -289 95 -24 11 -64 28 -90 39
-27 12 -56 25 -65 30 -10 6 -24 10 -32 10 -8 0 -16 3 -18 8 -1 4 -30 18 -63
31 -33 13 -105 45 -161 72 -105 50 -239 94 -315 102 -24 3 -57 10 -72 16 -16
6 -32 9 -36 7 -4 -3 -25 0 -47 5 -46 11 -53 12 -249 30 -165 14 -561 18 -640
6 -27 -4 -74 -10 -104 -13 -30 -2 -58 -7 -63 -10 -5 -3 -24 -8 -41 -11 -17 -3
-44 -11 -59 -19 -30 -16 -73 -20 -49 -5 7 5 11 13 7 19 -3 6 -2 13 4 17 5 3
10 2 10 -4 0 -13 49 -6 85 13 17 9 36 16 43 16 6 0 12 4 12 9 0 9 10 11 107
30 29 5 79 16 111 25 32 8 86 18 120 22 34 3 62 9 62 13 0 4 30 8 67 9 37 2
70 5 74 7 3 3 64 7 135 11 71 3 131 8 133 10 7 6 185 -6 221 -15z m5395 -107
c66 -14 136 -27 155 -28 19 -1 46 -9 60 -19 13 -9 28 -17 33 -17 5 0 55 -22
110 -48 75 -36 119 -65 167 -110 50 -48 59 -60 40 -55 -80 19 -245 65 -259 72
-19 10 -114 32 -276 63 -109 21 -147 23 -405 22 -276 0 -289 -1 -400 -28 -63
-15 -131 -31 -150 -36 -130 -29 -217 -55 -227 -69 -8 -9 -13 -10 -13 -3 0 8
-7 9 -23 3 -13 -5 -41 -12 -63 -15 -21 -4 -97 -20 -167 -37 -104 -25 -127 -34
-122 -46 4 -13 3 -14 -10 -3 -18 15 -96 7 -205 -20 -74 -19 -216 -48 -268 -55
-15 -2 -65 -15 -112 -29 -85 -25 -116 -27 -66 -5 14 7 26 16 26 21 0 4 6 8 14
8 8 0 27 6 43 14 72 36 184 86 193 86 6 0 18 4 28 9 26 15 143 59 177 67 17 4
35 10 40 14 6 4 28 11 50 15 22 3 78 18 125 32 47 13 99 27 115 30 17 3 37 8
45 12 20 11 184 47 295 65 50 9 133 25 185 36 125 28 259 48 356 55 153 10
243 21 252 30 11 11 126 -3 257 -31z m-5820 -69 c33 -3 92 -7 130 -10 79 -5
188 -16 225 -21 82 -11 103 -15 111 -19 5 -3 30 -8 56 -10 40 -4 176 -34 233
-52 42 -13 -35 -25 -178 -28 -86 -1 -193 -8 -237 -15 -44 -7 -132 -13 -195
-15 -63 -1 -135 -8 -160 -14 -25 -7 -88 -19 -140 -27 -52 -8 -116 -19 -142
-25 -32 -7 -53 -7 -66 0 -23 12 -94 17 -110 7 -7 -4 -12 -2 -12 6 0 8 -53 30
-135 57 -74 24 -140 50 -146 57 -6 8 -18 14 -26 14 -21 0 -7 17 19 23 13 3 61
16 108 30 63 19 128 28 250 37 259 17 261 17 415 5z m5301 -96 c93 2 100 0 95
-31 0 -5 4 -8 9 -8 6 0 1 -9 -10 -20 -11 -11 -24 -20 -29 -20 -5 0 -14 -7 -22
-16 -21 -25 -165 -81 -282 -110 -32 -8 -67 -19 -77 -24 -39 -21 -161 -39 -296
-44 -150 -5 -241 -22 -334 -63 -68 -30 -166 -54 -320 -79 -38 -6 -242 -6 -248
1 -3 3 -14 -2 -24 -12 -12 -11 -18 -12 -18 -3 0 9 -12 11 -47 5 -60 -8 -313
-63 -333 -72 -25 -11 -121 -30 -113 -22 5 4 35 21 68 39 33 17 79 42 102 56
23 13 71 31 105 40 35 8 72 19 83 24 45 19 115 38 205 54 52 10 111 22 130 26
70 17 186 41 215 45 80 11 162 27 180 35 11 5 36 11 55 14 19 3 44 7 55 10 11
3 63 14 115 26 52 12 96 25 98 30 2 5 9 7 17 4 7 -3 30 0 52 6 35 10 121 32
183 45 14 3 54 15 90 25 36 11 91 22 123 26 31 4 57 11 57 16 0 5 5 6 11 2 6
-4 54 -6 105 -5z m554 -27 c52 -12 111 -23 130 -26 19 -2 46 -7 60 -11 14 -4
40 -10 58 -13 l32 -7 -42 -22 c-155 -78 -241 -102 -367 -99 -62 1 -112 8 -141
19 -25 10 -84 20 -131 24 l-86 6 44 44 c34 36 43 52 43 80 l0 35 153 -5 c102
-3 183 -11 247 -25z m-6670 -32 c8 -9 138 -57 225 -83 181 -55 248 -64 332
-44 l60 14 -15 -39 c-14 -35 -18 -38 -55 -38 -23 0 -79 4 -126 10 -228 25
-354 32 -361 20 -4 -7 -13 -9 -19 -6 -6 4 -9 11 -6 16 7 12 -51 28 -157 42
-49 7 -88 15 -88 19 0 14 95 102 124 114 25 11 34 10 55 -3 15 -9 28 -19 31
-22z m1730 -30 c0 -4 17 -14 38 -20 20 -7 47 -19 60 -26 12 -8 22 -12 22 -10
0 6 139 -52 155 -64 6 -4 22 -10 38 -14 15 -3 27 -11 27 -17 0 -6 5 -7 10 -4
6 4 25 -2 43 -12 18 -11 55 -27 84 -36 28 -9 64 -22 80 -28 15 -7 35 -13 43
-14 8 -1 58 -12 109 -24 52 -12 130 -25 173 -28 43 -3 81 -10 84 -15 3 -4 20
-8 37 -8 18 0 38 -4 45 -9 20 -13 -7 -17 -133 -20 -60 -2 -184 -8 -275 -15
-256 -18 -321 -15 -720 29 -193 22 -290 29 -385 27 -60 -1 -135 3 -165 9 -30
6 -68 13 -85 15 -16 3 -48 10 -70 16 -22 6 -53 12 -70 14 -149 18 -248 69
-220 114 3 5 0 10 -7 10 -7 0 -2 6 12 13 14 8 36 20 50 27 14 8 27 15 30 15
39 10 72 18 103 26 21 6 82 10 135 10 53 1 115 5 137 9 52 12 148 19 319 25
77 3 141 7 143 9 9 9 153 5 153 -4z m1370 -8 c51 -6 64 -10 62 -22 -12 -52
-14 -80 -4 -80 17 0 32 34 27 63 -4 19 0 26 18 30 12 3 172 5 355 3 182 -2
332 0 332 3 0 7 31 12 80 15 21 1 27 -7 46 -59 12 -33 31 -83 42 -110 l20 -51
-66 7 c-37 4 -127 10 -199 14 -73 3 -143 8 -155 11 -23 4 -554 6 -705 1 -84
-2 -93 1 -70 25 6 7 29 47 50 89 37 72 39 75 70 71 18 -2 61 -7 97 -10z m1155
-17 c-22 -19 -53 -46 -68 -60 -33 -29 -36 -30 -33 -11 2 16 47 55 96 84 50 29
51 26 5 -13z m2850 -21 c76 -20 110 -34 142 -60 26 -21 48 -32 55 -28 7 4 10
3 5 -1 -4 -5 0 -19 9 -32 18 -29 24 -93 9 -111 -5 -8 -20 -25 -32 -38 -13 -14
-23 -27 -23 -29 0 -2 -10 -15 -22 -29 -13 -14 -31 -34 -40 -45 -16 -19 -18
-19 -115 14 -141 48 -192 54 -443 51 -210 -3 -223 -2 -200 13 53 35 225 166
228 173 2 4 10 8 17 8 7 0 26 7 42 15 15 8 55 26 88 41 33 14 77 34 98 45 20
10 37 16 37 13 0 -3 7 2 16 10 20 20 12 21 129 -10z m-7265 -79 c25 -7 97 -35
160 -62 63 -27 142 -55 175 -62 33 -7 87 -25 119 -39 l59 -27 -64 -8 c-78 -10
-169 -52 -228 -105 -49 -45 -53 -45 -109 7 -18 17 -35 31 -38 31 -3 0 -31 27
-63 61 -61 64 -83 110 -87 187 -1 36 1 42 15 37 9 -4 36 -13 61 -20z m6486 2
c18 -3 56 -13 85 -21 30 -9 85 -17 122 -18 60 -2 66 -4 50 -15 -10 -7 -34 -27
-53 -43 -80 -67 -171 -120 -222 -131 -29 -6 -60 -14 -68 -19 -9 -4 -31 -11
-50 -15 -19 -4 -42 -13 -50 -20 -19 -16 -64 -30 -58 -19 30 55 47 112 52 165
3 35 8 77 11 93 3 15 1 34 -5 41 -9 11 4 13 72 10 46 -1 97 -5 114 -8z m-276
-8 c0 -5 10 -9 23 -7 25 3 24 7 13 -87 -4 -38 -8 -71 -7 -72 0 -2 -11 -26 -24
-55 -14 -29 -25 -59 -25 -67 0 -19 -97 -109 -137 -126 -53 -24 -124 -37 -202
-36 -45 0 -81 -5 -89 -12 -11 -9 -92 -12 -291 -14 -152 -1 -313 -4 -358 -6
-104 -6 -208 4 -398 38 -124 22 -166 26 -240 20 -49 -3 -157 -9 -240 -12 -187
-6 -187 -6 -202 -16 -19 -12 -16 28 3 44 11 9 17 10 23 1 7 -12 87 2 105 19 6
5 16 9 24 9 8 0 28 6 45 14 39 17 131 44 174 51 18 3 42 9 55 14 13 4 45 11
71 15 27 4 59 10 70 12 64 14 98 16 272 17 129 2 197 6 212 15 12 6 34 12 50
12 29 0 151 37 288 88 69 25 94 29 182 29 133 1 271 12 279 24 3 5 16 9 29 9
13 0 50 9 82 20 32 11 72 25 88 31 17 6 41 12 54 15 14 3 32 9 40 14 21 12 31
12 31 -1z m-5895 -40 c33 -5 89 -12 125 -14 36 -3 94 -8 130 -12 94 -10 90
-10 147 -12 28 0 58 -7 65 -14 26 -26 63 -45 86 -42 12 1 22 -1 22 -5 0 -4 28
-13 63 -19 34 -7 90 -19 124 -27 34 -8 72 -14 85 -14 16 -1 5 -10 -37 -31 -57
-28 -117 -80 -127 -109 -11 -35 -137 2 -235 69 -32 22 -85 52 -118 68 -33 16
-86 45 -117 66 -31 20 -69 37 -83 37 -14 0 -24 4 -21 8 3 5 -23 14 -57 22 -64
14 -139 38 -122 39 6 1 37 -4 70 -10z m3795 -63 c0 -3 -4 -8 -10 -11 -5 -3
-10 -1 -10 4 0 6 5 11 10 11 6 0 10 -2 10 -4z m-2526 -136 c39 -5 110 -11 158
-12 49 -2 88 -6 88 -9 0 -6 100 -18 210 -25 36 -2 71 -6 79 -9 24 -9 238 -6
361 4 300 26 440 34 583 32 77 -1 45 -17 -47 -24 -47 -3 -118 -16 -158 -28
-40 -12 -82 -23 -93 -24 -11 -2 -69 -19 -129 -39 -60 -20 -117 -36 -125 -36
-9 0 -56 -13 -106 -29 -195 -62 -221 -66 -470 -66 -135 0 -259 6 -300 13 -38
7 -121 17 -184 22 -63 6 -120 14 -125 19 -6 5 -29 14 -51 21 -22 7 -44 16 -50
20 -5 5 -28 11 -50 14 -132 21 -149 47 -60 93 77 40 159 60 284 68 41 2 76 7
79 10 3 3 13 3 21 0 8 -3 46 -10 85 -15z m-911 -40 c34 -18 64 -36 67 -39 8
-11 81 -48 119 -60 19 -6 59 -11 89 -11 42 0 52 -3 44 -12 -14 -18 -6 -85 13
-114 8 -13 15 -30 15 -38 0 -8 6 -16 13 -19 6 -2 9 -7 6 -11 -8 -8 -115 11
-164 31 -22 8 -83 26 -135 38 -81 20 -117 23 -243 21 -166 -2 -156 -5 -245 81
l-42 42 27 15 c16 8 24 15 18 16 -5 0 8 10 30 21 22 12 42 24 45 28 24 30 109
49 208 46 60 -2 83 -8 135 -35z m6347 9 c44 -1 96 -10 125 -20 28 -11 60 -19
71 -19 12 0 38 -7 58 -15 20 -8 36 -13 36 -10 0 4 5 3 11 0 12 -8 -98 -116
-155 -152 -23 -14 -43 -29 -46 -33 -25 -34 -166 -26 -374 20 -123 27 -150 30
-157 19 -7 -11 -9 -10 -9 3 0 12 -11 19 -37 23 -21 4 -67 14 -103 22 -78 19
-186 22 -258 7 l-53 -11 45 43 c25 23 60 47 78 53 18 5 61 21 96 34 57 23 163
45 187 38 5 -1 92 -5 192 -7 149 -4 184 -2 195 9 7 8 15 11 18 7 3 -5 39 -9
80 -11z m-3712 -33 c8 -8 -12 -34 -22 -30 -12 5 -32 -3 -181 -71 -117 -53
-142 -64 -295 -139 -85 -42 -198 -98 -250 -126 -52 -27 -105 -50 -117 -50 -12
0 -24 -4 -28 -9 -3 -5 -20 -13 -38 -16 -17 -4 -45 -16 -60 -27 -15 -11 -49
-22 -75 -24 -26 -2 -81 -11 -122 -19 -118 -23 -224 -21 -315 5 -16 5 -61 12
-100 15 -315 26 -355 32 -410 66 -27 17 -83 62 -124 100 -40 38 -82 69 -92 69
-19 0 -35 16 -20 22 5 2 4 14 -2 28 -24 59 -27 96 -7 91 8 -3 56 -15 105 -27
50 -13 101 -28 115 -35 32 -14 115 -28 205 -35 39 -2 97 -9 130 -14 33 -5 125
-14 205 -19 225 -16 428 4 590 58 36 12 79 24 95 27 37 6 62 13 190 52 191 58
253 72 366 82 63 5 134 16 159 24 38 12 87 13 98 2z m-28 -75 c0 -4 -26 -37
-59 -72 -32 -35 -58 -68 -59 -73 -1 -25 -282 -241 -344 -265 -22 -8 -61 -32
-172 -107 -17 -11 -58 -36 -91 -54 -33 -18 -63 -38 -67 -44 -4 -6 -8 -7 -8 -3
0 5 -15 0 -32 -10 -18 -10 -55 -27 -83 -37 -27 -10 -54 -22 -60 -27 -5 -4 -28
-10 -50 -14 -22 -4 -53 -10 -70 -15 -16 -4 -44 -11 -62 -14 -30 -5 -31 -4 -28
22 2 15 4 30 4 34 1 8 220 224 246 241 11 8 49 24 85 36 79 27 201 84 255 120
22 15 69 40 105 56 36 16 81 39 100 51 19 11 56 29 83 39 26 10 47 22 47 27 0
5 3 7 8 4 4 -2 61 22 127 55 134 66 125 62 125 50z m3166 -100 c20 -6 41 -8
45 -5 4 2 10 0 14 -6 3 -5 28 -12 55 -16 28 -4 50 -10 50 -15 0 -5 -6 -9 -14
-9 -8 0 -50 -19 -93 -42 -156 -83 -207 -107 -213 -103 -4 3 -36 -9 -71 -26
-66 -32 -134 -59 -151 -59 -5 0 5 18 22 39 31 38 32 41 25 108 -4 37 -9 80
-11 96 -3 20 0 27 12 27 9 0 30 7 47 15 54 24 187 22 283 -4z m-1996 -11 c104
-18 247 -59 317 -91 36 -16 112 -52 169 -79 57 -28 108 -50 114 -50 6 0 24 -7
40 -15 16 -8 41 -16 54 -17 14 -1 27 -7 30 -14 3 -8 -10 -8 -47 -2 -29 5 -106
15 -172 23 -66 7 -151 23 -190 35 -38 12 -79 23 -90 25 -11 2 -50 15 -87 29
-38 14 -68 22 -68 18 0 -4 -4 -2 -8 3 -4 6 -54 24 -112 40 -98 26 -153 47
-223 81 -16 8 -38 14 -50 14 -18 0 -19 2 -7 11 18 12 234 5 330 -11z m295 -6
c44 -8 105 -19 135 -24 74 -13 379 -14 412 -1 14 5 28 8 30 6 10 -10 437 -15
443 -5 3 5 31 10 61 10 36 0 54 4 54 13 0 8 3 9 8 1 4 -6 37 -11 74 -10 38 0
72 -4 78 -10 5 -5 13 -44 16 -85 l7 -75 -34 -34 c-19 -19 -57 -46 -84 -60 -28
-14 -51 -28 -53 -31 -6 -13 -488 17 -557 36 -27 7 -79 24 -115 38 -36 14 -108
42 -160 62 -52 20 -118 50 -146 66 -28 16 -56 29 -62 29 -6 0 -35 11 -64 24
-56 25 -129 52 -163 59 -55 12 50 4 120 -9z m-669 -3 c5 -5 39 -25 76 -45 73
-39 155 -68 328 -116 63 -18 120 -36 125 -40 6 -5 27 -11 48 -15 20 -4 40 -11
43 -16 3 -5 18 -9 33 -9 15 0 32 -5 38 -11 5 -5 75 -18 154 -29 131 -17 186
-25 244 -35 101 -17 244 -70 295 -109 8 -6 54 -31 103 -56 106 -55 146 -84
132 -99 -12 -12 -232 -81 -295 -92 -93 -16 -261 -5 -295 21 -5 4 -23 10 -40
14 -41 10 -134 54 -152 71 -8 9 -33 24 -56 35 -23 10 -69 44 -102 75 -55 51
-168 135 -182 135 -4 0 -43 26 -87 58 -47 34 -112 69 -155 85 -99 36 -223 110
-256 152 -23 32 -23 49 1 26z m-616 -41 c173 -12 314 -14 431 -5 l87 7 48 -35
c27 -20 90 -53 139 -75 50 -22 102 -46 116 -54 l26 -14 -22 -50 -22 -51 -124
-7 c-159 -10 -639 -18 -656 -12 -12 5 -296 17 -451 20 -46 1 -66 5 -72 16 -10
19 -5 28 36 57 32 22 32 22 37 2 4 -13 12 -19 24 -17 13 2 18 12 18 38 0 28 6
40 32 58 18 12 36 22 42 22 5 0 12 8 16 18 8 23 105 92 130 92 11 0 85 -5 165
-10z m3300 -15 c36 -4 77 -8 92 -8 14 -1 30 -5 34 -9 11 -12 92 -10 99 2 4 6
11 7 17 4 6 -4 -6 -14 -28 -23 -22 -9 -79 -38 -127 -66 -48 -27 -105 -59 -126
-70 -22 -11 -48 -28 -58 -37 -11 -10 -24 -18 -31 -18 -14 0 -146 -88 -150
-101 -2 -5 -12 -9 -22 -9 -10 0 -22 -5 -26 -11 -3 -6 -26 -20 -51 -31 l-44
-19 -55 31 c-53 30 -57 30 -75 14 -18 -16 -17 -17 22 -39 23 -12 41 -25 41
-30 -1 -11 -61 -30 -157 -49 -78 -15 -373 -19 -385 -6 -9 10 -93 66 -125 82
-49 25 -141 76 -177 98 l-33 20 125 -5 c159 -5 275 -14 320 -24 20 -4 47 -4
60 2 14 5 54 10 90 10 50 2 76 -4 112 -21 27 -13 50 -28 54 -33 8 -13 42 -11
46 3 3 7 0 18 -6 24 -23 22 -96 64 -113 64 -10 1 14 12 52 26 39 13 72 29 73
34 2 6 12 10 23 10 10 0 19 4 19 8 0 4 21 13 48 20 50 14 200 84 242 114 14 9
50 24 80 32 34 9 54 19 52 27 -2 9 1 9 10 2 7 -6 42 -14 78 -18z m-6080 -4
c77 -13 182 -40 201 -51 19 -10 109 -22 181 -24 47 -1 71 -14 99 -52 8 -11 38
-37 67 -58 55 -40 58 -50 16 -60 -14 -4 -59 -27 -99 -51 -41 -25 -78 -45 -84
-45 -6 0 -11 -4 -11 -10 0 -18 -14 -11 -58 29 -24 22 -64 47 -90 57 -26 9 -70
27 -99 40 -28 13 -58 24 -67 24 -8 0 -28 11 -44 25 -17 14 -35 25 -41 25 -10
0 -119 67 -131 80 -3 4 -26 21 -52 40 -27 18 -48 38 -48 43 0 10 177 2 260
-12z m825 -266 c33 -3 92 -8 130 -11 39 -3 109 -12 157 -21 48 -8 97 -13 108
-10 11 3 17 1 14 -4 -7 -12 126 -10 176 3 19 5 54 14 78 19 23 6 42 16 42 22
0 8 4 7 12 -1 10 -10 -2 -27 -52 -79 -36 -37 -72 -73 -81 -80 -24 -18 -59 -97
-53 -120 5 -18 -4 -21 -99 -37 -154 -27 -464 -19 -557 14 -36 13 -67 26 -70
29 -3 3 -34 21 -70 40 -36 19 -86 51 -111 71 -54 43 -67 27 109 128 24 13 62
30 84 37 40 11 60 11 183 0z m465 -29 c0 -3 -4 -8 -10 -11 -5 -3 -10 -1 -10 4
0 6 5 11 10 11 6 0 10 -2 10 -4z m2539 -196 c42 -23 63 -41 105 -90 82 -95
155 -174 250 -272 83 -85 95 -100 70 -94 -16 4 -31 11 -34 14 -3 4 -45 43 -95
87 -49 44 -111 104 -139 133 -27 28 -52 52 -57 52 -11 0 -99 88 -99 99 0 5
-16 27 -36 48 -19 21 -40 46 -45 56 -10 18 -9 18 22 0 17 -10 44 -25 58 -33z
m-1730 -23 c-18 -19 -42 -46 -52 -60 -10 -15 -39 -39 -65 -53 -26 -15 -58 -37
-72 -49 -14 -12 -43 -33 -65 -46 -22 -13 -49 -31 -59 -41 -11 -10 -23 -18 -27
-18 -9 0 -220 -167 -235 -186 -6 -8 -16 -14 -22 -14 -6 0 -23 -11 -39 -24 -38
-31 -93 -59 -93 -46 0 5 4 10 9 10 12 0 195 138 199 151 2 5 10 9 18 9 9 0 12
5 8 12 -4 7 -3 8 5 4 12 -8 94 61 245 207 50 48 94 87 98 87 3 0 13 7 22 15
16 16 134 75 150 75 6 0 -6 -15 -25 -33z m146 -91 c28 -2 93 -9 145 -16 131
-16 173 -19 265 -25 124 -6 253 -15 330 -21 87 -8 181 -5 430 12 135 9 278 30
306 45 17 9 22 5 34 -24 8 -19 16 -45 19 -58 3 -13 12 -49 20 -79 17 -59 21
-136 8 -144 -12 -7 -169 -27 -257 -32 -180 -11 -214 -12 -295 -13 -208 -2
-682 22 -720 36 -8 3 -44 7 -80 9 -36 2 -138 10 -228 18 -90 7 -172 12 -182 9
-21 -5 -21 0 -1 65 5 17 7 32 3 32 -4 0 -2 4 5 8 6 4 13 19 15 34 2 14 10 33
17 41 7 9 10 21 6 27 -3 5 0 10 8 10 8 0 22 17 31 39 15 32 22 37 44 34 15 -2
50 -5 77 -7z m2264 -551 l10 -30 -27 34 c-15 19 -33 48 -40 65 l-13 31 30 -35
c17 -19 35 -48 40 -65z m-3469 0 c-14 -8 -29 -14 -35 -14 -5 0 1 6 15 14 14 8
30 14 35 14 6 0 -1 -6 -15 -14z m1065 -205 c0 -2 9 -4 20 -6 11 -1 49 -7 85
-12 36 -6 76 -13 90 -16 29 -6 81 -13 160 -21 30 -4 73 -10 95 -15 22 -5 71
-11 109 -14 37 -3 70 -7 72 -9 2 -2 -1 -18 -7 -36 -13 -38 -6 -61 20 -61 21 0
35 53 20 82 -8 15 0 16 79 12 124 -6 457 -7 522 -1 30 3 100 8 155 12 55 4
105 11 110 15 6 5 34 8 62 7 29 -1 53 -2 53 -2 -1 0 -33 -180 -36 -200 -2 -16
-6 -35 -8 -41 -5 -14 -92 -32 -186 -39 -41 -3 -90 -8 -109 -11 -30 -5 -142
-14 -181 -15 -8 0 -44 -4 -80 -10 -140 -20 -280 -23 -714 -15 l-310 6 -13 38
c-8 20 -16 46 -17 57 -2 11 -11 43 -20 70 -9 28 -16 61 -16 75 0 14 -9 50 -20
80 -11 30 -20 60 -20 65 0 7 18 10 43 9 23 -1 42 -3 42 -4z m1786 -313 c5 -12
22 -42 37 -67 31 -50 62 -133 87 -227 8 -34 18 -69 21 -78 11 -28 -21 -6 -34
23 -6 15 -16 34 -21 42 -6 8 -27 44 -47 80 -21 36 -48 76 -61 89 -12 13 -23
30 -23 37 0 8 -4 14 -9 14 -15 0 -19 47 -8 99 9 48 9 49 29 29 10 -10 23 -29
29 -41z m-1887 -27 c3 -18 -12 -44 -55 -97 -33 -40 -59 -75 -59 -79 0 -3 -16
-25 -35 -48 -19 -24 -35 -48 -35 -55 0 -6 -4 -11 -9 -11 -5 0 -14 -12 -20 -27
-6 -16 -21 -39 -32 -53 l-20 -25 16 40 c9 22 20 44 26 50 5 5 9 19 9 31 0 12
7 27 15 34 8 7 15 21 15 32 0 11 11 43 24 71 13 29 29 69 36 90 6 21 18 41 26
44 8 3 14 13 14 22 0 9 15 25 33 37 l32 21 8 -26 c4 -14 10 -37 11 -51z m2054
-405 c-3 -3 -9 2 -12 12 -6 14 -5 15 5 6 7 -7 10 -15 7 -18z m-2329 -26 c-6
-13 -25 -37 -42 -54 l-29 -30 19 30 c11 17 28 43 37 58 21 34 33 30 15 -4z
m621 -69 c81 -18 141 -30 148 -28 4 1 18 -1 32 -5 47 -11 313 -27 475 -27 92
-1 265 9 275 15 4 2 53 11 110 21 57 9 114 20 127 25 29 11 35 -1 18 -34 -7
-14 -11 -28 -8 -31 3 -3 -4 -25 -16 -49 -11 -24 -21 -50 -21 -58 0 -8 -4 -19
-8 -25 -4 -5 -18 -36 -31 -69 -12 -33 -28 -71 -36 -85 -15 -29 -80 -70 -112
-70 -12 0 -43 -7 -69 -16 -25 -8 -76 -15 -112 -15 -150 1 -366 12 -414 21 -28
6 -73 10 -101 10 -64 0 -90 20 -76 58 5 14 7 38 3 54 -4 23 -11 28 -27 26 -18
-2 -21 -9 -19 -33 4 -26 2 -28 -12 -16 -9 7 -16 18 -16 23 0 5 -5 14 -10 21
-46 55 -62 77 -91 136 -19 36 -43 82 -54 101 -27 48 -30 74 -8 65 10 -4 34
-11 53 -15z m1950 -318 c0 -40 -24 -19 -27 22 -2 35 -1 37 12 20 8 -11 15 -29
15 -42z m-2913 -45 c-27 -46 -54 -73 -63 -64 -8 7 14 47 26 47 6 0 10 5 10 12
0 14 41 60 48 53 2 -2 -7 -24 -21 -48z"/>
<path d="M6796 8084 c-10 -26 4 -64 25 -64 20 0 26 31 13 64 -8 21 -30 21 -38
0z"/>
<path d="M7206 8073 c12 -50 49 -52 42 -2 -2 16 -11 25 -26 27 -20 3 -22 1
-16 -25z"/>
<path d="M6381 8059 c-16 -48 -14 -71 7 -67 23 4 48 78 30 90 -21 13 -25 10
-37 -23z"/>
<path d="M7387 8046 c-3 -8 -3 -17 1 -21 4 -3 7 -14 7 -23 0 -10 8 -17 20 -17
16 0 19 5 16 30 -1 17 -5 33 -8 38 -7 12 -31 8 -36 -7z"/>
<path d="M7016 8031 c-14 -16 -15 -23 -6 -41 16 -30 34 -20 38 23 4 41 -6 47
-32 18z"/>
<path d="M6448 8035 c-9 -9 7 -68 19 -72 14 -5 28 40 19 62 -5 15 -27 20 -38
10z"/>
<path d="M6692 8027 c-13 -15 4 -58 26 -65 10 -3 12 6 10 34 -3 40 -18 53 -36
31z"/>
<path d="M7290 7992 c0 -31 11 -52 27 -52 22 0 13 64 -9 68 -12 2 -18 -3 -18
-16z"/>
<path d="M6834 7429 c-9 -15 17 -90 30 -86 16 5 19 52 6 77 -12 22 -25 26 -36
9z"/>
<path d="M7147 7423 c-4 -7 -3 -36 2 -65 0 -5 10 -8 22 -8 17 0 20 5 17 37 -2
26 -8 39 -20 41 -9 2 -18 -1 -21 -5z"/>
<path d="M6595 7410 c-11 -18 4 -80 20 -80 16 0 29 38 23 67 -4 21 -33 29 -43
13z"/>
<path d="M7324 7274 c-4 -17 -1 -31 9 -41 21 -22 37 -8 37 33 0 27 -4 34 -20
34 -13 0 -22 -9 -26 -26z"/>
<path d="M6743 7274 c-7 -20 9 -49 28 -49 22 0 18 59 -4 63 -9 2 -20 -4 -24
-14z"/>
<path d="M7047 7283 c-13 -13 -7 -54 9 -60 19 -7 34 13 34 45 0 21 -27 31 -43
15z"/>
<path d="M6500 7261 c0 -29 21 -61 40 -61 17 0 20 5 16 28 -2 15 -5 30 -5 35
-1 10 -51 9 -51 -2z"/>
<path d="M6210 6778 c-10 -66 -10 -76 4 -87 13 -11 17 -9 26 14 17 44 13 75
-10 75 -11 0 -20 -1 -20 -2z"/>
<path d="M6490 6714 c0 -28 3 -35 18 -32 11 2 18 14 20 36 3 27 0 32 -17 32
-17 0 -21 -6 -21 -36z"/>
<path d="M6793 6738 c-15 -19 -4 -88 13 -88 23 0 37 41 25 73 -11 29 -23 34
-38 15z"/>
<path d="M7388 6744 c-10 -9 25 -73 40 -74 9 0 12 12 10 38 -2 28 -8 38 -23
40 -12 2 -24 0 -27 -4z"/>
<path d="M7123 6700 c-2 -30 2 -42 16 -49 16 -9 19 -6 24 18 8 39 -2 71 -22
71 -12 0 -17 -11 -18 -40z"/>
<path d="M6080 6671 c0 -47 22 -61 39 -25 19 42 14 64 -14 64 -22 0 -25 -4
-25 -39z"/>
<path d="M7564 6686 c-8 -21 4 -84 18 -92 16 -10 28 17 26 61 -2 29 -8 41 -21
43 -9 2 -20 -4 -23 -12z"/>
<path d="M6344 6626 c-9 -23 0 -51 17 -54 18 -3 31 30 22 54 -7 18 -32 18 -39
0z"/>
<path d="M6687 6624 c-14 -14 -7 -72 9 -78 25 -10 32 1 29 41 -2 36 -21 54
-38 37z"/>
<path d="M7304 6597 c-7 -20 14 -59 29 -54 20 6 15 61 -6 65 -9 2 -20 -3 -23
-11z"/>
<path d="M6997 6593 c-12 -11 -8 -58 7 -78 8 -11 19 -16 30 -12 14 5 16 14 10
44 -8 44 -29 65 -47 46z"/>
<path d="M6076 5994 c-3 -9 -4 -32 0 -50 5 -25 12 -34 26 -34 17 0 19 6 16 47
-2 35 -8 49 -19 51 -9 2 -19 -5 -23 -14z"/>
<path d="M6324 5965 c-4 -8 -3 -23 2 -32 4 -10 6 -24 5 -30 -1 -7 7 -13 17
-13 25 0 31 17 20 58 -9 33 -34 43 -44 17z"/>
<path d="M7530 5964 c0 -15 23 -44 34 -44 3 0 6 14 6 30 0 23 -4 30 -20 30
-12 0 -20 -7 -20 -16z"/>
<path d="M7262 5958 c-16 -21 -3 -78 18 -78 22 0 32 34 20 66 -11 27 -22 30
-38 12z"/>
<path d="M6917 5943 c-13 -12 -7 -61 9 -74 13 -10 17 -10 25 2 14 23 10 66 -7
73 -19 7 -19 7 -27 -1z"/>
<path d="M6147 5843 c-9 -8 -9 -46 -1 -67 9 -24 34 -19 34 7 0 12 3 32 6 45 5
17 2 22 -13 22 -11 0 -23 -3 -26 -7z"/>
<path d="M6444 5824 c-8 -30 6 -59 27 -59 22 0 19 79 -3 83 -12 2 -19 -5 -24
-24z"/>
<path d="M7446 5831 c-9 -14 4 -41 19 -41 18 0 28 32 13 42 -17 10 -26 10 -32
-1z"/>
<path d="M7124 5806 c-9 -37 -1 -61 21 -61 17 0 20 7 20 40 0 30 -4 41 -17 43
-12 2 -19 -5 -24 -22z"/>
<path d="M6793 5803 c-19 -7 -16 -62 3 -70 23 -9 35 10 28 45 -7 32 -9 34 -31
25z"/>
<path d="M6346 5181 c-10 -15 5 -69 24 -86 25 -22 33 -5 24 50 -5 34 -11 45
-25 45 -10 0 -20 -4 -23 -9z"/>
<path d="M6515 5150 c-12 -19 -8 -82 6 -90 17 -11 28 -1 35 34 7 42 -23 85
-41 56z"/>
<path d="M7327 5133 c-13 -12 -7 -61 8 -67 18 -7 41 35 32 58 -7 16 -28 21
-40 9z"/>
<path d="M6867 5087 c-5 -14 1 -78 9 -86 2 -2 10 -1 19 3 23 8 17 89 -6 94 -9
2 -19 -4 -22 -11z"/>
<path d="M7147 5051 c-8 -37 2 -71 19 -71 8 0 14 9 14 19 0 11 4 22 9 25 5 4
8 14 6 24 -2 9 -4 20 -4 25 -1 4 -9 7 -20 7 -12 0 -20 -9 -24 -29z"/>
<path d="M6693 5043 c-18 -7 -16 -48 2 -63 27 -22 45 12 29 54 -6 17 -11 18
-31 9z"/>
<path d="M7217 4933 c-12 -12 -7 -51 7 -56 19 -7 36 12 36 40 0 22 -27 33 -43
16z"/>
<path d="M6608 4913 c-17 -21 -13 -49 7 -57 10 -3 17 5 23 27 13 48 -1 63 -30
30z"/>
<path d="M6884 4895 c-8 -31 1 -55 20 -55 17 0 28 51 14 68 -16 19 -27 15 -34
-13z"/>
<path d="M11855 9226 c-38 -39 -33 -63 18 -78 23 -6 52 -18 64 -25 13 -9 23
-10 27 -4 4 6 18 6 39 0 17 -6 64 -13 102 -16 39 -3 72 -7 74 -9 6 -5 39 -105
43 -129 3 -18 17 -41 46 -70 17 -19 15 -25 -7 -25 -10 0 -24 -7 -31 -15 -7 -8
-17 -15 -22 -15 -6 0 -24 -10 -41 -22 -17 -12 -40 -21 -52 -20 -13 1 -24 -7
-30 -21 -6 -12 -19 -23 -30 -25 -11 -2 -28 -11 -37 -19 -9 -8 -21 -12 -27 -9
-14 9 -43 -24 -38 -44 3 -10 1 -24 -4 -31 -4 -7 -3 -21 2 -30 7 -13 18 -16 51
-12 57 7 176 63 181 85 3 11 15 18 29 18 13 0 33 7 44 15 10 8 31 15 47 15 15
0 27 4 27 9 0 8 26 26 108 72 18 11 41 19 52 19 10 0 22 9 25 20 3 11 11 20
16 20 6 0 7 5 3 11 -4 7 -1 10 7 7 8 -3 31 6 51 19 21 12 42 23 46 23 19 0 73
33 82 50 6 11 22 25 37 32 31 15 64 72 67 118 3 42 -60 65 -103 38 -11 -6 -26
-8 -37 -3 -18 8 -61 12 -191 17 -35 1 -63 6 -63 10 0 5 -7 8 -15 8 -8 0 -15
-4 -15 -9 0 -6 -12 -6 -30 1 -22 7 -34 7 -44 -1 -10 -9 -15 -9 -18 -1 -2 8
-43 13 -110 15 -59 2 -111 6 -117 9 -5 4 -12 2 -15 -3 -4 -5 -21 -5 -43 1 -21
5 -51 11 -68 12 -16 2 -40 6 -52 10 -17 5 -29 1 -48 -18z m480 -152 c17 -4 50
-8 75 -9 25 0 53 -5 64 -9 11 -5 21 -5 25 1 4 7 81 14 81 7 0 -7 -38 -42 -42
-39 -11 12 -75 -21 -110 -57 -20 -21 -42 -38 -49 -38 -17 0 -49 40 -55 69 -3
14 -12 40 -20 58 -15 33 -19 56 -6 36 4 -6 21 -15 37 -19z"/>
<path d="M1082 8649 c-12 -5 -29 -6 -38 -2 -9 3 -19 1 -23 -5 -4 -7 -29 -15
-57 -18 -27 -3 -61 -10 -76 -16 -24 -9 -27 -14 -24 -48 2 -21 13 -49 25 -61
12 -13 21 -26 21 -30 0 -4 11 -10 25 -13 13 -3 39 -19 57 -35 18 -15 47 -34
63 -42 17 -8 37 -29 45 -46 10 -22 22 -33 37 -33 13 0 28 -9 35 -20 7 -11 20
-20 30 -20 9 0 33 -16 54 -35 20 -19 55 -40 78 -47 23 -7 54 -24 70 -40 16
-15 44 -31 62 -34 18 -3 38 -12 45 -20 6 -8 18 -14 26 -14 8 0 11 -4 8 -10 -3
-5 1 -10 9 -10 9 0 16 -4 16 -10 0 -13 64 -24 95 -16 29 7 31 25 10 66 -11 21
-23 30 -40 30 -14 0 -34 9 -45 20 -11 11 -25 20 -31 20 -5 0 -7 5 -3 12 5 8 2
9 -9 5 -11 -4 -28 5 -49 23 -18 17 -42 33 -53 36 -27 9 -35 24 -24 46 6 10 7
23 4 28 -3 6 1 7 10 4 14 -6 16 3 14 62 0 38 4 81 10 96 6 17 7 29 1 33 -27
17 -2 24 70 20 44 -2 80 0 80 5 0 4 54 7 120 6 122 -1 133 2 144 41 11 34 -27
51 -142 64 -74 8 -111 8 -133 0 -17 -6 -35 -8 -40 -5 -10 6 -34 6 -181 2 -58
-2 -98 1 -98 6 0 6 -5 5 -12 -2 -15 -15 -58 -16 -58 -2 0 6 -9 10 -20 10 -11
0 -20 -6 -20 -12 0 -9 -3 -10 -8 -2 -10 15 -54 22 -80 13z m183 -129 c6 0 31
2 57 4 l47 4 -5 -32 c-2 -17 -5 -68 -5 -113 -1 -83 -1 -83 -22 -68 -12 8 -27
15 -35 15 -14 0 -62 47 -62 61 0 4 -16 11 -35 15 -19 3 -35 10 -35 15 0 14
-52 58 -64 53 -6 -2 -18 9 -27 24 l-16 29 96 -4 c53 -2 101 -4 106 -3z"/>
<path d="M12940 8385 c0 -10 -11 -16 -32 -17 -50 -2 -61 -4 -89 -16 -14 -5
-43 -13 -65 -17 -102 -18 -162 -25 -193 -25 -18 1 -39 -4 -46 -10 -6 -5 -36
-12 -66 -15 -32 -3 -59 -12 -66 -21 -11 -15 -14 -15 -34 -1 -20 15 -23 14 -41
-9 -11 -13 -23 -22 -27 -19 -5 2 -27 -3 -50 -12 -33 -13 -43 -23 -51 -52 -18
-64 -17 -64 58 -57 37 4 75 7 85 7 9 0 17 5 17 11 0 6 10 8 22 5 12 -4 34 1
50 11 25 15 30 15 38 2 8 -12 11 -11 16 7 4 13 10 20 15 17 5 -3 9 0 9 5 0 6
5 11 10 11 6 0 10 -9 10 -19 0 -11 4 -22 9 -25 4 -3 11 -30 15 -60 3 -29 15
-73 25 -97 23 -51 20 -59 -20 -59 -16 0 -29 -5 -29 -11 0 -6 -12 -10 -27 -8
-16 1 -40 -3 -54 -9 -15 -6 -64 -16 -110 -23 -47 -7 -88 -19 -92 -26 -5 -7
-12 -11 -18 -8 -5 4 -9 2 -9 -4 0 -5 -8 -12 -18 -16 -27 -8 -46 -53 -31 -71 6
-8 18 -14 25 -14 8 0 14 -4 14 -9 0 -6 10 -7 23 -4 12 2 30 5 41 4 10 0 31 9
46 21 21 15 37 19 59 15 17 -4 33 -2 36 3 3 6 21 10 40 10 19 0 37 5 40 10 4
6 11 8 16 4 6 -3 19 2 29 11 11 10 28 15 39 12 24 -6 125 20 129 33 2 6 12 10
22 10 10 0 22 5 25 11 4 6 19 9 33 8 15 -1 34 1 42 4 8 3 32 8 53 11 21 2 52
12 69 20 17 9 40 16 50 16 21 0 36 28 21 39 -5 3 -12 14 -16 23 -5 14 -18 16
-74 14 -37 -1 -77 -7 -88 -13 -11 -6 -54 -14 -96 -18 -76 -6 -77 -6 -77 17 1
63 -4 88 -32 151 -5 12 -9 32 -8 43 2 19 8 22 48 21 25 0 52 3 60 8 8 5 22 8
32 7 9 -2 19 2 23 8 3 5 18 10 33 10 15 0 36 7 46 15 10 8 23 12 27 9 5 -3 9
2 9 10 0 9 6 17 13 18 28 3 33 4 53 16 29 16 35 35 21 66 -13 28 -37 35 -37
11z m-10 -56 c0 -5 -4 -9 -10 -9 -5 0 -10 7 -10 16 0 8 5 12 10 9 6 -3 10 -10
10 -16z"/>
<path d="M12650 7496 c-3 -2 -21 -6 -40 -9 -64 -10 -105 -20 -117 -29 -6 -5
-17 -8 -25 -7 -27 3 -38 -1 -38 -16 0 -8 -14 -22 -30 -30 -46 -24 -69 -46 -95
-90 -25 -42 -29 -63 -27 -131 2 -31 10 -49 37 -78 19 -21 35 -42 35 -47 0 -5
12 -9 27 -9 14 0 24 -3 20 -6 -10 -10 20 -34 41 -34 11 0 25 -7 32 -15 7 -8
22 -15 34 -14 44 0 121 -12 130 -21 5 -5 16 -6 25 -1 9 4 39 7 66 7 28 -1 56
4 63 11 7 7 19 13 26 13 22 0 66 -45 66 -67 0 -12 5 -25 11 -29 6 -3 17 -22
25 -40 8 -19 19 -34 25 -34 5 0 7 -5 4 -10 -9 -15 4 -50 19 -50 8 0 19 -15 26
-32 19 -53 25 -61 48 -65 51 -7 100 82 52 94 -11 3 -20 13 -20 23 0 20 -27 78
-47 102 -8 9 -13 23 -11 30 3 7 -5 22 -17 33 -12 12 -22 27 -23 35 0 8 -4 25
-7 38 -6 18 -3 22 14 22 11 0 21 4 21 8 0 5 11 22 24 37 14 16 23 32 20 37 -3
4 4 8 15 8 13 0 21 7 22 18 0 9 2 36 5 60 6 54 -28 130 -63 138 -12 3 -25 16
-29 27 -9 28 -52 69 -59 56 -4 -5 -16 3 -29 17 -15 19 -34 27 -62 30 -56 4
-135 14 -164 20 -14 2 -28 3 -30 0z m133 -125 c20 -5 37 -5 37 -1 0 13 38 -1
44 -16 3 -9 -4 -19 -19 -26 -25 -11 -51 -60 -40 -77 3 -6 2 -18 -3 -26 -4 -9
-5 -38 -2 -66 9 -66 -5 -78 -90 -79 -85 -1 -170 10 -170 22 0 5 -9 7 -19 3
-11 -3 -22 -1 -26 5 -3 5 -15 10 -26 10 -21 0 -40 15 -52 40 -4 8 -14 25 -22
36 -15 20 -14 23 15 54 16 18 30 37 30 43 0 6 3 8 6 4 8 -8 64 21 84 43 8 9
21 15 28 12 7 -2 18 1 25 6 7 6 40 10 75 8 34 -1 62 1 62 6 0 10 15 10 63 -1z
m191 -137 c13 -35 6 -60 -23 -77 -22 -13 -31 -14 -37 -5 -4 6 -2 14 4 16 17 5
15 22 -3 22 -18 0 -18 1 -5 34 11 30 54 36 64 10z"/>
<path d="M678 7342 c-15 -13 -28 -28 -28 -34 0 -16 52 -58 64 -51 16 10 171 3
174 -7 7 -18 52 -11 52 8 0 12 3 13 8 5 11 -17 82 -46 82 -33 0 12 162 3 268
-15 28 -4 42 -3 42 4 0 6 7 11 15 11 9 0 12 -6 8 -17 -8 -24 -44 -63 -58 -63
-6 0 -28 -20 -50 -45 -28 -34 -47 -47 -75 -51 -28 -5 -39 -12 -47 -35 -6 -16
-19 -29 -28 -29 -16 0 -34 -14 -122 -98 -25 -24 -48 -41 -50 -38 -3 3 -10 1
-17 -5 -6 -5 -21 -17 -33 -27 -14 -11 -23 -34 -28 -64 -6 -43 -4 -48 13 -48
11 0 25 -7 32 -15 8 -10 30 -15 61 -15 26 0 54 -6 61 -12 8 -8 49 -14 107 -16
52 -1 100 -7 107 -13 6 -5 23 -7 36 -4 25 6 160 -8 191 -20 12 -5 17 -2 17 11
1 18 1 18 14 2 14 -19 82 -26 71 -8 -3 6 1 13 9 16 31 12 15 31 -41 49 -32 11
-68 19 -80 20 -11 0 -28 7 -37 14 -9 8 -26 11 -41 7 -15 -4 -37 0 -53 8 -15 8
-49 14 -74 14 -26 0 -53 4 -59 8 -11 7 -48 11 -131 15 -37 2 -31 19 15 43 20
11 37 25 37 32 0 6 7 15 16 18 24 9 31 7 14 -4 -8 -5 -10 -10 -5 -10 6 0 18 9
28 20 9 11 13 20 9 20 -15 1 44 40 60 40 9 0 19 9 23 19 6 20 31 36 65 40 6 0
9 4 8 9 -4 11 35 52 49 52 7 0 13 6 13 13 0 6 13 18 30 25 16 8 29 17 29 20
-4 26 4 41 26 46 14 4 25 11 25 16 0 6 7 10 15 10 8 0 17 12 21 28 3 15 7 31
8 37 2 5 -8 18 -20 28 -29 22 -183 45 -193 28 -6 -8 -17 -8 -42 3 -19 8 -46
12 -60 9 -15 -3 -30 0 -33 6 -11 17 -76 14 -82 -4 -4 -8 -10 -15 -15 -15 -4 0
-6 6 -3 14 6 16 -55 31 -85 21 -10 -3 -30 -1 -45 5 -18 7 -33 7 -46 0 -13 -7
-22 -6 -32 3 -19 19 -46 28 -53 17 -3 -5 -20 -4 -38 1 -50 13 -88 7 -119 -19z"/>
<path d="M12999 5904 c-102 -112 -179 -192 -315 -328 -85 -85 -183 -195 -224
-251 -40 -55 -76 -102 -80 -105 -3 -3 -26 -45 -49 -95 -23 -49 -47 -99 -53
-110 -6 -11 -22 -41 -35 -67 -13 -26 -28 -50 -33 -53 -4 -3 -12 -20 -15 -38
-4 -17 -12 -41 -18 -52 -6 -11 -12 -29 -14 -40 -2 -11 -8 -31 -13 -45 -12 -30
-29 -117 -36 -180 -2 -25 -7 -58 -10 -75 -3 -16 -8 -64 -10 -105 -7 -149 -25
-240 -46 -240 -4 0 -8 -6 -8 -14 0 -7 -25 -44 -55 -82 -30 -38 -62 -83 -70
-101 -9 -18 -21 -38 -28 -45 -7 -7 -28 -35 -47 -63 -19 -27 -55 -77 -80 -110
-25 -33 -58 -78 -73 -101 -15 -22 -41 -53 -57 -69 -17 -16 -30 -34 -30 -40 0
-7 -12 -26 -27 -42 -16 -17 -50 -59 -78 -94 -27 -35 -65 -77 -82 -95 -18 -17
-33 -35 -33 -39 0 -4 -19 -26 -41 -49 l-42 -41 18 35 c10 18 24 40 31 47 7 8
25 37 39 66 15 29 34 60 42 70 9 9 13 20 10 24 -4 3 0 15 9 25 9 10 17 31 18
48 1 16 4 30 8 30 12 0 37 93 48 180 7 46 14 88 16 92 7 11 11 38 18 118 4 36
11 88 16 115 5 28 9 80 7 118 -1 37 1 67 4 67 3 0 7 41 8 92 1 50 4 94 6 98 3
4 7 56 10 115 5 119 0 135 -45 135 -22 0 -31 -7 -42 -30 -7 -16 -16 -30 -20
-30 -5 0 -8 -6 -8 -14 0 -8 -8 -21 -17 -28 -19 -14 -38 -40 -52 -74 -5 -12
-17 -24 -25 -27 -9 -4 -16 -11 -16 -16 0 -6 -25 -48 -57 -93 -31 -46 -70 -110
-87 -143 -18 -33 -37 -69 -43 -80 -37 -67 -111 -239 -118 -275 -1 -3 -7 -25
-14 -50 -7 -25 -15 -56 -18 -70 -2 -14 -9 -43 -16 -65 -13 -47 -18 -655 -5
-655 4 0 4 -8 -1 -17 -22 -43 -34 -79 -32 -94 1 -10 -29 -42 -75 -80 -43 -35
-94 -80 -113 -100 -20 -20 -79 -67 -131 -105 -52 -38 -104 -77 -114 -86 -11
-10 -26 -18 -33 -18 -7 0 -13 -5 -13 -10 0 -6 -10 -14 -22 -19 -13 -5 -67 -39
-120 -75 -54 -36 -100 -66 -104 -66 -3 0 -25 -13 -49 -30 -24 -16 -48 -30 -53
-30 -5 0 -15 -7 -22 -15 -7 -8 -19 -15 -27 -15 -8 0 -33 -13 -56 -29 -23 -15
-62 -38 -87 -49 -25 -12 -76 -40 -115 -62 -38 -23 -88 -49 -110 -59 -22 -10
-79 -37 -127 -60 -48 -22 -92 -41 -97 -41 -5 0 -14 -7 -21 -15 -7 -8 -17 -15
-22 -15 -10 0 17 50 42 79 76 87 168 234 173 278 0 4 8 16 17 25 9 10 31 57
50 105 18 49 37 92 42 98 4 5 8 16 8 25 1 8 9 33 20 55 11 22 19 49 20 61 0
11 12 58 26 105 15 46 27 92 27 102 1 9 5 17 10 17 4 0 6 4 3 9 -3 5 1 21 8
37 14 29 24 77 31 146 2 20 9 56 16 80 7 24 13 57 14 73 1 17 5 42 9 57 9 30
-7 68 -30 68 -8 0 -34 -20 -57 -46 -45 -48 -213 -218 -243 -246 -11 -9 -25
-23 -32 -30 -7 -7 -32 -33 -56 -58 -24 -25 -56 -59 -70 -77 -40 -47 -136 -195
-136 -209 0 -6 -9 -23 -20 -37 -11 -14 -20 -32 -20 -41 0 -9 -4 -16 -8 -16 -9
0 -31 -47 -58 -127 -11 -29 -22 -53 -25 -53 -4 0 -13 -29 -20 -65 -7 -36 -16
-65 -19 -65 -7 0 -9 -19 -14 -190 -4 -111 7 -211 27 -264 6 -16 -36 -38 -168
-87 -33 -12 -79 -31 -103 -41 -23 -10 -56 -21 -72 -25 -17 -3 -33 -10 -36 -14
-3 -5 -16 -9 -30 -9 -14 0 -27 -7 -30 -15 -4 -8 -11 -12 -16 -9 -9 6 -61 -13
-199 -72 -31 -13 -72 -27 -90 -30 -35 -6 -78 -19 -114 -35 -46 -20 -116 -41
-210 -65 -54 -14 -102 -28 -105 -32 -3 -4 -18 -8 -35 -9 -16 -1 -46 -6 -65
-12 -162 -45 -208 -53 -311 -55 -62 -2 -99 -15 -99 -37 0 -28 102 -58 127 -38
7 7 18 7 28 2 10 -6 39 -4 78 4 34 8 80 15 102 17 22 2 40 4 40 5 0 4 21 8
115 26 132 25 140 27 140 36 0 5 3 8 8 7 9 -2 52 9 111 28 24 8 46 12 49 9 3
-2 10 -1 16 4 22 18 52 15 86 -9 19 -14 42 -30 51 -35 9 -6 59 -45 111 -87 53
-43 98 -78 102 -78 4 0 15 -8 26 -17 27 -26 267 -147 320 -162 25 -7 54 -17
65 -21 11 -5 31 -11 45 -14 14 -3 61 -15 105 -26 122 -33 199 -49 207 -44 4 3
25 0 45 -5 39 -11 196 -24 268 -23 191 3 376 2 383 -2 4 -2 22 2 40 9 45 19
41 46 -10 81 -48 32 -44 30 -114 84 -29 22 -57 40 -62 40 -6 0 -17 8 -24 18
-7 10 -30 26 -50 35 -21 10 -38 22 -38 27 0 5 -13 16 -29 25 -16 8 -35 20 -43
28 -25 24 -172 117 -205 129 -18 7 -33 16 -33 20 0 4 -8 8 -18 8 -9 0 -38 11
-64 25 -26 14 -60 27 -75 29 -88 13 -120 19 -133 26 -8 4 -51 11 -95 15 -44 3
-100 11 -125 17 -25 5 -81 12 -125 14 -44 2 -118 7 -163 10 -99 7 -94 14 41
58 48 16 90 32 93 37 3 5 16 9 30 9 13 0 24 4 24 9 0 5 17 12 38 16 20 3 52
15 70 26 18 10 45 19 59 19 25 0 76 24 101 48 7 6 33 17 57 23 24 6 46 17 49
25 3 8 14 14 24 14 10 0 35 9 57 20 22 11 45 20 51 20 7 0 14 3 16 8 2 4 26
19 55 33 29 15 49 29 46 33 -5 5 29 8 53 5 4 0 10 3 13 8 3 5 28 19 54 31 26
13 45 27 42 32 -3 5 3 8 13 7 20 -1 92 40 92 53 0 5 18 11 40 15 23 4 55 14
71 22 43 21 137 18 207 -8 152 -55 223 -79 234 -79 7 0 26 -7 41 -15 19 -9 25
-10 21 -2 -4 7 2 4 13 -6 11 -9 22 -15 25 -12 3 3 18 0 34 -6 16 -6 40 -13 54
-15 14 -1 36 -5 50 -9 59 -14 110 -22 110 -17 0 2 7 -1 15 -8 20 -17 251 -30
274 -16 5 3 28 8 51 11 24 3 48 9 54 12 5 4 31 11 56 15 25 5 59 12 75 15 17
3 35 9 41 14 6 5 28 11 50 15 21 3 77 19 124 36 47 16 93 32 103 35 9 3 17 9
17 14 0 5 9 9 20 9 12 0 20 7 20 18 0 9 4 13 8 7 10 -14 32 -17 46 -7 6 5 37
17 69 26 31 10 57 21 57 26 0 7 68 22 82 17 9 -3 48 49 48 66 0 28 -38 49
-107 57 -67 9 -138 22 -218 42 -22 5 -59 11 -81 13 -23 2 -66 11 -96 20 -223
64 -534 79 -744 34 -55 -11 -117 -25 -139 -29 -64 -14 -127 -30 -173 -46 -63
-21 -83 -18 -44 7 17 12 32 25 32 31 0 5 5 6 10 3 6 -4 23 7 40 23 16 16 32
27 35 23 4 -3 13 3 21 13 8 11 14 16 14 12 0 -4 7 0 16 8 8 9 22 16 29 16 8 0
28 12 44 27 46 43 65 58 68 55 2 -1 13 7 26 19 12 11 33 27 47 34 14 7 34 24
46 37 30 32 62 58 75 58 5 0 7 5 4 10 -3 6 -1 10 6 10 6 0 33 19 58 41 118
107 160 144 209 187 29 26 63 58 75 71 12 13 30 31 40 40 9 8 17 21 17 27 0 7
11 15 25 18 14 4 25 11 25 16 0 5 18 28 40 50 22 22 40 44 40 48 0 4 13 16 29
27 16 10 28 22 25 26 -2 4 12 23 32 43 l36 36 102 -5 c55 -2 126 -9 156 -15
81 -15 98 -17 170 -25 35 -4 74 -11 87 -16 29 -11 235 -10 349 2 49 6 114 19
144 30 30 11 69 24 86 28 16 5 41 15 55 24 13 8 33 17 44 19 11 2 46 20 77 41
31 20 61 37 67 37 5 0 26 16 47 35 20 19 40 35 43 35 3 0 20 14 38 30 18 17
39 30 47 30 9 0 16 7 16 15 0 8 9 15 19 15 23 0 31 11 37 49 6 37 -20 49 -114
56 -41 3 -77 7 -81 9 -3 2 -35 7 -71 10 -120 11 -231 25 -240 31 -5 3 -12 0
-16 -6 -5 -8 -8 -8 -14 0 -6 11 -139 19 -330 21 -116 1 -312 -39 -344 -70 -5
-5 -15 -6 -22 -3 -8 3 -24 -1 -37 -9 -35 -23 -59 -30 -51 -15 4 6 16 18 26 25
10 7 16 17 14 21 -3 4 4 17 14 29 11 12 20 25 20 30 0 4 16 23 35 42 19 19 35
39 35 46 0 7 6 19 13 26 6 7 18 25 26 40 8 15 18 25 23 22 4 -3 8 -1 8 4 0 16
102 165 130 189 14 13 31 23 38 23 7 0 28 10 45 23 18 12 37 23 42 23 9 -1 47
20 160 89 72 44 165 129 201 183 21 31 42 59 46 60 8 4 48 85 48 98 0 4 7 15
15 24 9 10 18 34 20 56 3 21 9 41 14 44 4 3 14 23 21 45 7 22 17 45 22 52 8
10 18 52 20 91 1 6 5 12 9 12 10 0 49 129 49 163 0 14 4 28 9 31 11 7 32 109
32 159 0 9 4 17 8 17 4 0 8 21 10 47 1 26 6 52 10 58 11 14 22 61 27 115 4 45
13 94 35 185 6 28 12 76 12 108 1 37 5 57 13 57 19 0 39 59 27 79 -18 29 -48
24 -84 -15z m-74 -305 c-14 -63 -39 -170 -56 -239 -16 -69 -31 -146 -32 -172
-2 -25 -8 -52 -14 -60 -10 -13 -24 -60 -24 -88 0 -16 -24 -82 -41 -114 -6 -11
-12 -35 -14 -53 -2 -18 -7 -39 -11 -46 -4 -6 -8 -14 -9 -17 -2 -10 -16 -45
-23 -60 -5 -9 -12 -31 -16 -50 -4 -19 -18 -51 -31 -72 -13 -21 -24 -42 -24
-47 0 -11 -37 -77 -60 -105 -36 -45 -86 -101 -93 -104 -4 -2 -13 -9 -20 -16
-36 -34 -135 -105 -157 -111 -14 -4 -32 -12 -40 -19 -8 -6 -26 -17 -40 -25
l-24 -14 17 24 c9 13 29 44 44 69 14 25 41 68 59 96 18 28 39 64 46 80 7 16
19 34 26 39 7 6 14 17 16 25 1 8 13 35 26 60 61 117 84 166 101 222 10 34 16
65 13 70 -3 4 -2 8 3 8 9 0 42 73 49 110 2 8 12 35 23 60 49 113 78 201 69
206 -13 8 -49 -37 -83 -103 -14 -29 -30 -55 -35 -58 -5 -3 -14 -22 -20 -43
-13 -41 -36 -98 -50 -124 -6 -10 -10 -29 -10 -43 0 -14 -4 -25 -8 -25 -5 0
-15 -19 -22 -42 -13 -40 -78 -183 -99 -218 -5 -8 -23 -44 -40 -80 -16 -36 -55
-105 -86 -154 l-55 -89 -1 44 c-1 52 1 105 6 132 3 10 7 46 10 80 4 34 10 68
15 77 4 8 11 39 15 67 4 29 11 55 16 59 5 3 9 14 9 25 0 10 5 19 11 19 6 0 9
6 6 14 -3 7 -1 18 4 23 5 5 11 20 14 33 2 12 11 30 20 40 8 9 18 30 21 48 3
17 12 33 19 36 7 2 16 17 19 32 4 15 16 39 27 52 10 14 19 31 19 40 0 8 7 20
16 26 8 6 16 18 17 26 4 21 18 44 52 82 17 18 43 53 59 78 16 25 62 78 102
118 40 39 67 72 61 72 -7 0 3 8 21 16 17 9 32 22 32 28 0 6 18 24 40 39 24 17
38 33 34 40 -4 7 -4 9 0 6 9 -8 56 34 56 49 0 6 9 14 20 17 11 3 20 11 20 17
0 6 2 9 5 6 3 -3 -6 -57 -20 -119z m-1419 -1224 c-5 -22 -3 -35 4 -35 7 0 6
-8 -2 -22 -7 -13 -13 -41 -14 -63 -5 -106 -15 -235 -23 -280 -5 -27 -10 -65
-10 -83 0 -18 -5 -57 -11 -87 -6 -30 -12 -65 -14 -78 -1 -12 -5 -27 -8 -32 -3
-6 -9 -39 -12 -75 -4 -36 -13 -78 -20 -95 -8 -16 -26 -61 -41 -100 -16 -38
-31 -74 -35 -80 -6 -8 -40 -70 -84 -150 -22 -41 -55 -77 -66 -70 -6 4 -5 12 5
21 8 9 15 23 16 32 0 9 3 26 6 37 3 11 6 38 7 60 0 22 5 43 9 46 10 7 20 72
31 198 3 35 9 73 13 85 4 11 7 26 8 31 3 34 18 103 25 120 9 19 18 62 42 187
12 64 5 99 -15 79 -7 -7 -12 -15 -13 -19 0 -4 -9 -27 -21 -52 -11 -25 -26 -63
-33 -85 -7 -22 -17 -51 -22 -65 -21 -53 -56 -219 -63 -295 -7 -84 -13 -134
-22 -169 -5 -21 -17 -76 -28 -126 -3 -14 -7 -36 -10 -49 -12 -66 -16 -16 -12
177 2 116 7 215 10 219 4 3 1 13 -5 21 -10 11 -9 16 5 23 9 6 17 18 17 27 0
21 37 145 59 197 10 22 23 59 31 83 7 23 17 42 21 42 4 0 10 13 14 29 3 16 13
35 21 42 8 6 14 18 14 26 0 8 9 27 20 43 11 15 17 30 13 34 -3 3 -1 6 5 6 11
0 26 23 56 85 8 17 24 40 35 52 12 12 21 25 21 28 0 8 73 115 79 115 2 0 0
-16 -3 -35z m929 -765 c44 -1 107 -5 140 -10 33 -5 89 -11 125 -15 36 -3 89
-10 119 -16 30 -5 72 -9 93 -9 21 0 38 -4 38 -9 0 -10 -81 -81 -93 -81 -4 0
-16 -8 -27 -17 -10 -10 -45 -31 -77 -48 -32 -16 -71 -38 -86 -49 -49 -32 -221
-72 -357 -82 -99 -7 -262 -3 -281 7 -11 6 -27 8 -36 5 -8 -3 -20 -3 -26 1 -7
4 -23 8 -37 9 -14 1 -59 6 -100 12 -65 10 -134 19 -164 21 -12 1 1 14 17 17 7
1 32 8 57 15 25 7 52 14 62 15 9 0 25 5 35 9 21 9 50 13 135 19 141 11 205 17
243 21 47 6 89 11 210 25 105 13 215 39 215 52 0 7 -343 3 -440 -6 -71 -6
-186 -17 -235 -21 -84 -7 -188 -25 -228 -41 -46 -17 -66 -19 -50 -3 6 6 17 11
24 12 8 2 36 17 62 35 27 17 54 32 61 32 8 0 19 7 26 15 7 9 15 13 18 11 2 -3
18 2 34 10 31 16 62 25 88 26 8 0 20 4 25 8 19 15 212 37 290 33 22 -1 76 -2
120 -3z m-2559 -542 c-4 -13 -9 -45 -12 -73 -4 -44 -14 -78 -45 -150 -11 -27
-40 -142 -38 -152 3 -10 -11 -44 -24 -61 -6 -8 -12 -21 -13 -30 -1 -10 -5 -26
-8 -37 -26 -95 -36 -126 -55 -167 -13 -26 -24 -53 -25 -61 -1 -8 -7 -22 -14
-30 -22 -26 -60 -103 -67 -135 -3 -18 -10 -32 -13 -32 -4 0 -23 -25 -42 -55
-19 -30 -38 -55 -42 -55 -5 0 -8 -5 -8 -11 0 -6 -21 -39 -46 -73 -26 -33 -44
-54 -41 -46 3 8 13 41 23 73 9 31 21 57 26 57 5 0 6 5 3 10 -3 6 -1 10 5 10 6
0 9 4 5 9 -3 5 -1 12 5 16 5 3 10 15 10 26 0 11 9 39 20 61 11 23 20 46 20 50
0 5 12 35 27 66 14 31 26 62 26 69 0 7 3 13 6 13 3 0 12 15 19 33 7 17 19 46
26 62 41 90 65 155 58 155 -4 0 -2 4 4 8 15 10 46 81 42 94 -6 16 -86 -69
-116 -121 -45 -78 -53 -95 -48 -107 3 -8 1 -14 -4 -14 -5 0 -12 -10 -16 -22
-3 -13 -15 -35 -25 -50 -11 -14 -19 -35 -19 -45 0 -10 -6 -25 -12 -31 -7 -7
-13 -16 -13 -20 0 -13 -48 -137 -57 -147 -4 -5 -8 -18 -8 -28 0 -11 -9 -36
-20 -56 -10 -20 -24 -55 -30 -78 -6 -24 -15 -43 -20 -43 -6 0 -10 -8 -10 -18
0 -10 -3 -22 -7 -26 -5 -4 -9 -12 -9 -17 -1 -5 -2 -15 -3 -21 -4 -32 -29 41
-27 79 1 24 -1 43 -6 43 -4 0 -6 6 -3 13 2 6 6 37 10 67 11 103 17 135 31 174
8 21 13 41 10 43 -9 9 71 186 123 273 11 19 26 46 33 60 27 56 158 232 158
213 0 -4 10 7 21 25 12 17 27 32 35 32 8 0 14 5 14 11 0 11 110 119 123 119 4
0 7 5 7 12 0 14 40 58 53 58 5 0 6 -10 3 -22z m1346 -830 c24 -5 50 -11 58
-13 71 -16 169 -37 185 -39 11 -2 29 -6 40 -9 20 -6 94 -19 130 -22 51 -5 136
-28 129 -35 -5 -4 -34 -15 -64 -25 -78 -25 -162 -55 -180 -64 -14 -7 -90 -30
-170 -52 -178 -48 -227 -60 -240 -60 -8 0 -31 -5 -51 -11 -41 -12 -295 6 -314
22 -6 5 -27 11 -46 14 -19 2 -47 7 -63 11 -16 5 -36 9 -45 10 -18 2 -48 12
-73 26 -10 5 -29 9 -43 9 -14 0 -45 9 -67 20 -23 11 -52 20 -65 20 -13 0 -23
5 -23 11 0 7 -11 9 -30 6 -17 -4 -30 -2 -30 3 0 6 -7 10 -16 10 -8 0 -13 4
-10 8 6 10 333 7 363 -2 31 -10 697 -16 713 -6 17 10 -5 17 -90 25 -71 7 -117
14 -140 20 -29 7 -167 16 -310 19 -80 2 -166 7 -192 11 -41 6 -48 5 -48 -9 0
-10 -5 -14 -10 -11 -6 4 -8 11 -5 16 4 5 -13 9 -36 9 -23 0 -40 3 -36 6 7 7
131 36 162 38 11 1 26 5 34 10 8 5 26 10 40 11 14 1 51 6 81 10 30 4 65 8 78
10 12 1 24 4 26 6 9 9 318 6 358 -3z m-2642 -893 c96 -23 250 -70 309 -94 25
-11 97 -35 158 -55 62 -20 121 -40 130 -45 25 -12 110 -41 160 -55 23 -7 45
-15 49 -19 4 -4 18 -7 30 -7 13 0 26 -4 29 -10 3 -5 17 -10 30 -10 13 0 26 -4
30 -9 5 -8 57 -22 173 -46 17 -4 32 -3 32 2 0 10 -32 26 -142 69 -48 19 -120
49 -160 67 -88 41 -151 59 -198 59 -25 -1 -30 1 -16 7 14 5 1 13 -55 33 -41
15 -110 40 -154 57 -44 17 -87 31 -95 31 -8 0 -37 9 -65 20 l-50 21 50 -5 c28
-3 82 -8 120 -11 39 -3 84 -8 100 -11 17 -3 46 -7 65 -9 166 -16 310 -47 373
-82 16 -8 37 -13 47 -10 10 3 21 -1 24 -9 3 -7 29 -25 58 -40 29 -14 72 -42
96 -61 23 -19 42 -32 42 -29 0 3 28 -17 63 -45 34 -28 69 -53 77 -57 8 -3 27
-15 42 -26 15 -12 43 -32 62 -46 20 -14 36 -27 36 -30 0 -7 -339 -2 -375 6
-28 6 -53 9 -150 18 -22 2 -60 9 -85 16 -25 7 -81 21 -125 31 -44 9 -99 22
-123 28 -51 13 -173 61 -186 72 -6 5 -16 9 -24 9 -15 0 -84 30 -92 40 -3 3
-20 12 -37 19 -18 8 -33 18 -33 23 0 5 -15 15 -34 23 -19 8 -64 37 -100 65
-36 27 -70 50 -76 50 -5 0 -10 3 -10 8 0 4 -14 16 -30 27 -33 22 -40 39 -12
31 9 -2 28 -7 42 -11z"/>
<path d="M764 5462 c-17 -10 -21 -56 -7 -83 13 -26 29 -68 64 -169 12 -36 27
-76 32 -90 6 -14 11 -30 13 -37 1 -7 9 -27 18 -44 9 -18 16 -38 16 -44 0 -7 9
-33 20 -57 11 -25 21 -54 23 -66 2 -11 8 -26 14 -34 6 -7 12 -17 14 -23 1 -5
8 -24 16 -42 7 -18 13 -35 13 -38 0 -2 18 -34 40 -70 22 -36 40 -67 40 -69 0
-6 65 -106 84 -131 9 -11 34 -45 56 -75 23 -30 48 -59 58 -64 20 -11 42 -32
42 -40 0 -7 110 -110 123 -115 7 -2 17 -11 23 -20 7 -9 47 -34 90 -56 44 -22
81 -42 84 -45 9 -9 93 -47 145 -66 28 -9 60 -30 73 -46 13 -15 30 -28 37 -28
8 0 12 -6 9 -14 -3 -8 3 -23 13 -33 10 -10 29 -36 42 -57 13 -21 31 -45 41
-54 9 -10 43 -50 74 -89 32 -40 63 -73 69 -73 6 0 8 -3 4 -6 -6 -6 2 -18 38
-58 11 -12 33 -39 48 -59 16 -21 38 -48 50 -61 12 -13 33 -38 47 -56 14 -17
49 -56 78 -85 28 -30 52 -59 52 -65 0 -9 14 -14 33 -11 4 0 7 -4 7 -10 0 -21
54 -99 73 -105 9 -3 24 -19 33 -36 9 -17 28 -41 43 -54 14 -12 67 -63 118
-112 51 -49 99 -92 107 -95 9 -4 16 -11 16 -17 0 -12 -22 -13 -35 -2 -6 4 -37
16 -70 26 -33 10 -79 27 -102 37 -24 11 -57 19 -74 19 -16 0 -38 4 -48 10 -10
5 -33 12 -52 15 -19 3 -47 10 -64 15 -90 26 -351 40 -485 24 -19 -2 -62 -6
-95 -9 -33 -3 -82 -10 -110 -15 -27 -5 -79 -12 -115 -16 -36 -3 -69 -8 -74
-12 -9 -5 -129 -27 -206 -37 -113 -15 -185 -39 -160 -55 10 -6 9 -9 -1 -13
-11 -5 -10 -9 5 -21 10 -8 23 -13 27 -10 5 3 9 1 9 -4 0 -5 19 -15 43 -22 23
-8 44 -17 47 -20 3 -3 41 -21 85 -40 44 -19 81 -38 83 -42 2 -4 10 -8 17 -8 7
0 26 -6 42 -14 49 -25 138 -56 157 -56 11 0 27 -6 35 -13 9 -8 48 -21 86 -31
39 -9 94 -23 123 -31 30 -8 91 -16 138 -17 46 -2 84 -6 84 -10 0 -3 8 -4 18
-2 9 2 85 6 167 9 168 6 202 8 260 20 104 20 263 78 278 102 4 7 12 13 18 13
5 0 35 16 65 35 43 28 59 33 74 25 10 -5 20 -13 22 -17 5 -12 83 -63 96 -63 6
0 9 7 6 15 -4 8 -2 15 4 15 11 0 11 -18 -1 -36 -4 -7 3 -18 16 -27 12 -8 40
-31 61 -51 22 -20 44 -36 48 -36 5 0 21 -11 36 -25 15 -14 32 -25 39 -25 7 0
13 -4 13 -10 0 -5 18 -19 39 -30 22 -10 41 -23 43 -28 1 -4 23 -20 48 -34 25
-14 54 -35 65 -45 24 -21 85 -60 138 -87 20 -11 37 -23 37 -28 0 -5 10 -12 23
-17 13 -5 36 -20 53 -33 16 -14 58 -41 94 -61 36 -21 74 -43 84 -50 91 -57
130 -79 144 -80 9 -1 29 -13 44 -27 l27 -25 -142 0 c-166 0 -259 -9 -387 -36
-30 -6 -73 -15 -95 -19 -60 -11 -174 -50 -225 -75 -84 -42 -164 -86 -189 -104
-14 -10 -36 -22 -48 -25 -13 -4 -29 -13 -35 -19 -19 -18 -93 -67 -101 -67 -4
0 -33 -18 -64 -40 -32 -22 -63 -40 -70 -40 -20 0 -26 -40 -8 -66 9 -13 20 -22
24 -20 13 9 150 16 371 21 216 4 421 14 431 21 4 2 24 6 45 9 22 4 68 11 104
16 90 13 223 57 345 113 39 18 91 42 116 54 26 11 82 49 125 85 l79 64 100
-49 c55 -26 103 -48 107 -48 4 0 44 -18 90 -40 85 -40 231 -98 303 -120 22 -7
54 -18 70 -25 78 -31 204 -72 250 -80 11 -2 39 -11 63 -20 24 -8 59 -18 79
-21 20 -3 47 -10 60 -15 13 -5 27 -8 31 -8 35 6 27 -5 -13 -18 -27 -8 -58 -21
-69 -29 -11 -8 -29 -14 -39 -14 -10 0 -46 -13 -80 -29 -34 -16 -79 -36 -100
-44 -20 -9 -40 -23 -43 -32 -3 -8 -12 -15 -20 -15 -17 0 -97 -53 -149 -99 -51
-45 -215 -223 -215 -233 0 -4 -16 -30 -35 -57 -19 -26 -35 -55 -35 -62 0 -8
-7 -27 -16 -44 -9 -16 -24 -59 -34 -95 -10 -36 -25 -83 -33 -105 -32 -83 15
-109 88 -48 25 21 50 38 55 38 4 0 12 3 16 7 4 5 16 8 26 8 11 0 29 5 40 11
12 7 40 13 62 14 62 5 85 10 98 23 7 7 19 12 28 12 9 0 20 4 26 8 5 5 29 15
54 22 25 8 50 17 55 20 6 4 27 10 48 14 20 4 37 10 37 15 0 4 26 15 57 25 60
19 89 35 135 72 15 12 40 25 56 28 15 4 32 16 37 29 6 12 25 26 43 31 17 5 32
15 32 22 0 7 9 16 20 19 11 3 20 10 20 15 0 5 23 32 51 60 31 30 49 56 45 65
-3 9 0 12 9 9 9 -4 21 9 34 34 11 22 26 46 33 53 7 8 26 34 43 59 16 25 33 47
36 50 3 3 16 25 30 49 l24 43 75 -7 c41 -4 89 -9 105 -11 17 -2 59 -6 95 -9
36 -2 103 -7 149 -11 46 -3 112 -3 146 1 56 6 62 9 58 26 -6 20 -6 20 -43 26
-14 2 -59 8 -100 14 -41 6 -97 12 -125 14 -27 1 -86 8 -130 14 -164 22 -204
24 -220 11 -9 -7 -15 -8 -15 -2 0 6 -19 13 -42 17 -202 30 -428 75 -468 92 -8
3 -19 5 -24 4 -5 -1 -47 10 -95 24 -47 14 -97 29 -111 33 l-25 8 2 129 c4 202
3 297 -2 306 -3 4 -1 10 4 13 5 4 7 23 5 43 -3 20 -6 70 -9 112 -2 42 -6 90
-8 106 -3 17 -8 57 -12 90 -5 50 -22 111 -53 195 -3 8 -4 21 -3 29 1 7 -9 36
-22 65 -13 28 -27 65 -31 83 -4 17 -13 37 -21 43 -7 6 -16 23 -20 38 -4 15
-16 43 -28 62 -12 19 -23 42 -24 52 -2 15 -18 51 -68 163 -13 29 -24 63 -25
77 -1 4 -12 38 -26 75 -14 38 -27 79 -28 92 -2 13 -10 27 -17 32 -8 5 -11 9
-8 9 3 0 1 21 -6 48 -10 39 -16 48 -38 50 -39 5 -54 -29 -61 -133 -3 -49 -13
-121 -21 -160 -18 -86 -43 -197 -56 -250 -17 -67 -20 -104 -24 -274 -6 -192
-1 -230 51 -406 14 -49 28 -100 31 -112 3 -13 10 -23 15 -23 5 0 7 -4 3 -9 -3
-5 -1 -12 5 -16 5 -3 10 -17 10 -29 0 -13 7 -29 15 -36 8 -7 15 -21 15 -31 0
-9 7 -24 15 -33 8 -8 15 -19 15 -25 0 -5 6 -16 13 -23 6 -7 21 -29 31 -48 11
-19 37 -56 58 -81 21 -26 38 -49 38 -53 0 -3 23 -28 51 -55 47 -46 49 -50 23
-42 -16 4 -39 7 -51 6 -13 -1 -21 1 -18 4 7 7 -125 70 -147 71 -9 0 -20 5 -24
11 -4 7 -21 9 -42 5 -37 -6 -64 7 -56 27 4 11 -98 67 -123 67 -6 0 -13 5 -15
12 -2 6 -14 12 -26 13 -12 1 -35 11 -52 23 -16 12 -34 22 -39 22 -9 0 -132 58
-171 81 -8 4 -58 30 -110 55 -52 26 -97 50 -100 53 -3 3 -18 13 -35 21 -16 7
-45 25 -63 38 -17 13 -37 20 -42 17 -6 -3 -10 -2 -10 3 0 9 -77 62 -91 62 -5
0 -15 10 -23 22 -19 29 -22 136 -11 343 11 217 12 249 7 258 -4 8 -14 138 -14
169 1 10 -3 20 -9 23 -5 4 -9 17 -9 31 0 13 -3 24 -7 24 -5 0 -9 18 -10 40 -2
22 -9 53 -17 68 -8 15 -17 44 -21 65 -4 20 -12 37 -17 37 -6 0 -8 6 -5 14 3 8
0 20 -8 26 -8 6 -12 17 -9 24 3 8 -1 20 -9 27 -7 8 -20 28 -29 44 -50 97 -114
207 -149 255 -21 30 -49 75 -61 100 -12 25 -30 56 -40 70 -10 14 -20 35 -22
47 -9 45 -26 64 -54 61 l-27 -3 -1 -260 c0 -144 -3 -265 -6 -270 -3 -6 -2 -19
1 -29 4 -10 4 -44 -1 -75 -4 -31 -5 -63 -3 -71 3 -8 7 -78 10 -155 6 -134 10
-184 15 -195 1 -3 3 -9 4 -15 15 -81 52 -210 66 -230 3 -5 15 -32 25 -60 10
-27 25 -59 34 -70 23 -29 43 -66 38 -71 -2 -3 -18 7 -35 21 -16 14 -33 25 -37
25 -9 0 -79 53 -88 67 -4 7 -13 13 -19 13 -5 0 -44 27 -85 60 -41 33 -78 60
-82 60 -5 0 -36 26 -68 58 -33 31 -72 63 -87 71 -14 8 -33 25 -41 38 -9 12
-22 23 -30 23 -8 0 -15 4 -15 10 0 5 -31 35 -69 67 -102 87 -106 90 -119 85
-7 -2 -10 2 -7 10 3 8 -12 35 -34 60 -23 26 -36 49 -31 54 5 5 10 32 11 59 1
28 6 55 10 60 23 32 32 324 13 420 -12 62 -36 204 -39 240 -2 11 -5 27 -8 35
-3 8 -10 42 -17 75 -7 33 -16 78 -21 100 -6 22 -11 47 -13 57 -1 9 -8 24 -16
32 -7 9 -10 19 -7 23 4 3 1 15 -5 27 -7 11 -13 26 -15 31 -1 6 -11 37 -23 69
-11 33 -20 65 -20 73 0 7 -5 13 -11 13 -5 0 -8 4 -4 9 3 5 -1 27 -9 48 -7 21
-28 76 -45 123 -18 47 -37 101 -43 120 -5 19 -19 56 -30 83 -18 42 -24 47 -50
45 -40 -3 -45 -13 -52 -88 -11 -116 -21 -205 -30 -248 -5 -26 -9 -62 -22 -217
-3 -38 -8 -88 -11 -110 -16 -122 17 -408 62 -530 8 -22 14 -51 15 -66 0 -14 5
-30 10 -35 11 -11 32 -74 24 -74 -5 0 -44 39 -44 44 0 2 -15 19 -32 38 -18 19
-51 55 -72 80 -25 29 -45 44 -55 41 -13 -4 -14 -3 -2 5 13 9 13 13 0 29 -8 10
-24 26 -36 36 -13 10 -23 24 -23 32 0 7 -3 15 -7 17 -5 2 -30 32 -58 68 -27
36 -54 71 -60 78 -5 7 -18 22 -27 32 -9 10 -24 32 -32 48 -8 16 -22 32 -29 35
-8 3 -26 36 -42 74 -15 37 -40 96 -57 130 -16 34 -29 65 -28 68 1 3 -5 16 -13
28 -8 12 -18 37 -21 55 -4 17 -16 38 -27 45 -10 8 -16 16 -14 19 3 3 -2 23
-11 44 -36 84 -97 209 -103 214 -4 3 -24 34 -45 70 -109 185 -247 360 -299
379 -6 2 -22 16 -36 31 -14 15 -51 44 -81 65 -30 21 -57 41 -60 45 -3 3 -26
19 -52 35 -27 17 -48 33 -48 38 0 4 -8 7 -19 7 -10 0 -26 11 -35 25 -9 14 -23
25 -32 25 -8 0 -13 4 -10 8 3 5 -15 18 -40 30 -51 25 -46 24 -60 14z m236
-232 c12 -8 36 -27 54 -42 17 -15 34 -28 38 -28 4 0 18 -11 32 -25 14 -14 29
-25 33 -25 12 0 176 -173 204 -215 58 -89 89 -142 89 -153 0 -7 4 -12 8 -12 4
0 18 -19 30 -42 38 -72 57 -103 65 -106 4 -2 7 -8 7 -13 0 -5 11 -32 25 -61
14 -28 25 -60 25 -69 0 -10 5 -21 11 -25 12 -7 72 -135 66 -140 -2 -2 -17 11
-33 28 -44 50 -112 128 -158 181 -105 124 -111 130 -125 113 -11 -13 -6 -25
33 -76 25 -33 46 -63 46 -66 0 -3 6 -11 13 -18 6 -7 30 -35 52 -61 22 -27 46
-54 53 -61 6 -7 12 -17 12 -23 0 -6 4 -11 8 -11 5 0 26 -25 48 -55 21 -30 42
-55 47 -55 4 0 7 -6 7 -14 0 -7 11 -21 25 -30 14 -9 25 -23 25 -30 0 -8 6 -16
13 -19 6 -2 -1 -4 -17 -4 -16 0 -23 3 -16 7 11 7 -63 50 -87 50 -6 0 -25 14
-43 30 -18 17 -36 30 -42 30 -11 0 -82 56 -107 84 -9 10 -44 48 -78 83 -35 35
-63 67 -63 71 0 4 -16 24 -35 44 -19 20 -35 43 -35 52 0 8 -10 23 -22 33 -13
10 -36 43 -52 73 -16 30 -36 66 -45 80 -9 14 -22 36 -28 50 -6 14 -23 52 -38
85 -15 33 -31 71 -37 85 -6 14 -15 34 -19 45 -5 11 -13 34 -18 50 -23 75 -93
262 -107 282 -24 38 -16 35 50 -14 35 -26 74 -55 86 -63z m1436 -726 c12 -32
24 -66 27 -74 3 -8 13 -35 21 -60 8 -25 20 -44 27 -42 10 2 10 0 1 -11 -12
-14 -10 -28 10 -77 24 -58 41 -103 42 -115 1 -5 9 -35 19 -66 9 -31 24 -92 33
-135 9 -44 20 -97 25 -119 5 -22 11 -58 14 -80 3 -22 11 -83 19 -135 18 -124
20 -274 5 -350 -11 -57 -12 -59 -24 -36 -13 25 -30 90 -60 231 -19 93 -31 125
-45 125 -6 0 -6 9 1 24 8 18 8 33 1 56 -6 17 -9 44 -5 60 3 20 1 30 -6 30 -7
0 -9 4 -6 10 5 8 -10 132 -34 273 -8 46 -16 65 -26 56 -12 -12 -6 -209 10
-334 2 -16 7 -61 11 -100 3 -38 9 -74 12 -80 3 -5 7 -25 9 -45 6 -65 34 -212
52 -268 6 -19 6 -30 0 -27 -5 4 -9 12 -9 18 0 7 -9 23 -20 37 -11 14 -20 35
-20 48 0 13 -7 30 -15 38 -8 9 -15 24 -15 34 0 10 -4 22 -10 25 -5 3 -10 17
-10 30 0 13 -4 27 -10 30 -5 3 -10 15 -10 26 0 10 -4 27 -9 37 -11 20 -41 116
-48 151 -2 14 -7 29 -11 35 -3 6 -7 18 -9 26 -10 74 -13 110 -18 210 -3 63 -8
125 -11 138 -2 12 0 22 5 22 5 0 10 24 11 53 1 69 6 122 12 133 3 5 4 29 4 54
-1 25 1 55 6 67 4 13 8 50 9 83 2 76 17 74 45 -6z m1096 -996 c31 -47 76 -122
99 -165 23 -43 46 -82 50 -87 5 -6 9 -16 9 -23 0 -7 11 -36 25 -65 13 -29 31
-78 39 -108 7 -30 21 -80 29 -110 30 -105 40 -230 34 -431 -6 -222 -4 -199
-17 -199 -5 0 -10 9 -10 19 0 11 -6 26 -12 33 -7 7 -14 20 -14 28 -4 41 -10
66 -19 72 -6 5 -6 8 2 8 8 0 5 18 -9 58 -23 65 -48 155 -53 192 -2 14 -18 77
-35 140 -17 63 -33 124 -35 135 -13 67 -29 123 -42 140 -12 18 -14 11 -12 -62
2 -46 6 -83 10 -83 4 0 7 -15 6 -32 0 -18 3 -53 7 -78 5 -25 10 -55 11 -67 2
-12 7 -28 11 -35 5 -7 9 -17 10 -23 21 -127 26 -150 50 -225 13 -41 26 -90 29
-109 3 -19 10 -43 16 -53 6 -11 13 -32 15 -46 3 -15 8 -29 12 -32 13 -9 15
-73 3 -66 -6 4 -11 12 -11 18 0 5 -18 30 -40 55 -22 25 -40 52 -40 59 0 8 -4
14 -9 14 -5 0 -14 12 -20 28 -5 15 -16 38 -24 52 -28 50 -44 86 -56 130 -7 25
-17 54 -21 65 -10 25 -31 111 -36 147 -2 16 -8 56 -12 90 -10 70 -10 63 -11
272 0 82 2 152 5 157 3 5 0 9 -6 9 -6 0 -8 5 -5 11 4 6 7 72 6 147 0 75 3 130
7 122 4 -8 33 -54 64 -102z m1414 -445 c8 -21 17 -45 19 -53 9 -44 18 -76 24
-85 3 -5 6 -12 7 -15 0 -3 6 -18 13 -35 7 -16 14 -38 16 -47 2 -9 10 -27 18
-40 8 -13 17 -35 21 -50 4 -16 11 -28 16 -28 6 0 10 -6 10 -14 0 -13 47 -125
70 -167 5 -9 12 -34 16 -55 4 -22 13 -48 20 -59 8 -11 14 -29 14 -41 0 -12 7
-38 15 -57 8 -20 17 -56 19 -81 3 -25 7 -50 10 -54 8 -13 15 -81 22 -197 6
-105 6 -112 -1 -270 -3 -55 -5 -108 -6 -119 0 -18 0 -18 -14 0 -8 11 -15 30
-15 43 0 14 -6 32 -13 40 -11 14 -20 41 -42 131 -2 8 -14 51 -25 95 -22 81
-46 185 -56 240 -3 17 -7 36 -10 44 -4 11 -29 127 -39 181 -1 8 -6 40 -10 70
-4 30 -13 80 -20 110 -7 30 -16 67 -19 83 -4 15 -11 27 -18 27 -8 0 -9 -31 -4
-112 8 -122 8 -124 32 -305 4 -24 11 -43 16 -43 6 0 8 -11 4 -24 -3 -13 1 -47
8 -77 8 -30 17 -74 21 -98 4 -25 20 -95 36 -155 16 -61 31 -118 33 -126 3 -8
9 -28 15 -43 15 -39 14 -40 -12 -22 -13 8 -29 26 -35 39 -6 14 -21 37 -34 51
-22 26 -72 105 -84 135 -48 117 -83 226 -125 385 -28 104 -18 468 14 530 7 14
6 20 -3 23 -8 3 -9 7 -1 11 6 4 13 25 16 46 3 22 10 54 15 70 11 38 25 126 22
143 -5 25 8 11 24 -25z m-2611 -254 c44 -6 91 -12 105 -13 14 0 27 -3 30 -6
11 -13 87 -29 108 -24 13 4 22 2 22 -5 0 -6 11 -11 23 -11 13 0 38 -7 55 -16
18 -8 44 -17 59 -19 16 -2 39 -8 53 -14 21 -8 17 -10 -30 -11 -30 0 -89 -3
-130 -5 -108 -7 -278 -7 -289 -1 -5 3 -60 8 -123 10 -62 3 -145 8 -185 11 -45
4 -73 2 -77 -4 -9 -14 57 -41 66 -28 4 6 13 4 23 -6 9 -10 22 -17 28 -18 7 0
21 -2 32 -5 50 -10 286 -35 340 -36 33 0 103 2 155 6 173 12 290 14 290 7 0
-12 -140 -79 -190 -91 -25 -6 -54 -13 -65 -16 -107 -26 -483 -36 -586 -15 -30
6 -65 13 -79 15 -14 3 -25 5 -25 6 0 1 -13 4 -30 6 -16 3 -69 18 -117 34 -90
30 -154 45 -162 39 -2 -2 -15 6 -28 17 -13 12 -40 27 -60 33 -20 7 -42 19 -48
27 -7 7 -22 14 -34 14 -12 0 -31 7 -42 15 -10 8 -27 15 -36 15 -10 0 -18 4
-18 9 0 10 20 15 105 27 28 4 61 9 75 11 14 2 45 6 69 8 24 2 60 6 80 9 41 7
112 16 156 21 17 2 73 7 125 10 52 3 96 8 99 10 6 7 162 -4 256 -16z m1491
-526 c-7 -7 -26 7 -26 19 0 6 6 6 15 -2 9 -7 13 -15 11 -17z m1007 -48 c-3 -9
-8 -14 -10 -11 -3 3 -2 9 2 15 9 16 15 13 8 -4z m-544 -519 c36 -6 68 -26 41
-26 -8 0 -45 -10 -82 -22 -46 -14 -68 -27 -68 -37 0 -13 -2 -13 -9 -3 -7 11
-21 12 -77 3 -152 -26 -252 -40 -319 -46 -169 -15 -275 -37 -275 -56 0 -10 33
-12 210 -10 115 1 257 17 371 42 26 6 53 12 60 13 28 5 102 28 128 39 14 6 33
12 41 13 8 1 24 5 35 9 20 7 20 6 1 -9 -27 -22 -148 -81 -216 -105 -30 -10
-64 -22 -75 -27 -11 -4 -25 -6 -32 -5 -6 1 -14 -3 -18 -9 -3 -5 -19 -10 -35
-10 -16 0 -31 -4 -34 -8 -5 -9 -77 -26 -151 -37 -115 -16 -257 -25 -477 -31
-133 -3 -246 -8 -250 -11 -4 -2 -5 3 -2 11 3 9 9 14 13 11 4 -2 25 8 47 23 21
14 45 27 52 28 8 2 22 10 31 18 10 9 21 16 25 16 4 0 16 9 28 20 12 11 29 20
38 20 9 0 20 4 26 9 16 16 144 81 159 81 8 0 15 4 15 9 0 5 17 12 38 17 20 4
39 8 42 9 3 1 19 4 35 8 120 29 251 48 355 53 52 3 104 6 115 8 23 5 165 -1
214 -8z m1630 -512 c30 -6 26 -9 -71 -51 -125 -53 -186 -84 -258 -131 -30 -19
-82 -52 -115 -73 -124 -79 -310 -244 -348 -308 -30 -51 0 -37 107 49 54 44
101 80 105 80 3 0 24 17 45 38 22 20 58 48 81 62 130 77 193 117 215 137 14
13 41 28 60 34 19 7 44 18 55 25 11 8 28 14 38 14 14 0 17 5 13 16 -4 11 -2
15 7 11 7 -3 38 6 67 18 30 13 57 22 59 20 7 -7 -136 -211 -192 -272 -82 -92
-158 -153 -207 -168 -14 -4 -34 -15 -45 -25 -30 -25 -192 -98 -320 -142 -63
-22 -95 -39 -95 -52 0 -8 -7 -17 -16 -20 -12 -5 -15 -2 -10 10 5 14 1 15 -31
10 -21 -4 -46 -7 -57 -8 -10 -1 -25 -12 -33 -25 -13 -19 -18 -20 -36 -10 -12
7 -23 12 -25 13 -9 3 43 134 76 191 48 83 240 283 272 283 5 0 10 4 10 9 0 8
155 111 167 111 3 0 33 13 67 29 34 15 85 36 113 45 29 10 55 21 58 26 3 5 27
12 53 16 26 4 59 13 75 21 15 7 27 11 27 8 0 -3 8 -1 18 4 20 12 30 13 71 5z"/>
<path d="M1300 4682 c0 -4 12 -25 26 -46 22 -32 28 -36 36 -23 10 18 -17 57
-40 57 -7 0 -10 5 -7 10 3 6 1 10 -4 10 -6 0 -11 -3 -11 -8z"/>
<path d="M4815 1610 c4 -6 11 -8 16 -5 14 9 11 15 -7 15 -8 0 -12 -5 -9 -10z"/>
</g>
</svg>
